<?xml version="1.0" encoding="UTF-8"?>
<svg version="1.1" xmlns="http://www.w3.org/2000/svg" width="1024" height="1024">
<path d="M0 0 C337.92 0 675.84 0 1024 0 C1024 337.92 1024 675.84 1024 1024 C686.08 1024 348.16 1024 0 1024 C0 686.08 0 348.16 0 0 Z " fill="#FEFEFE" transform="translate(0,0)"/>
<path d="M0 0 C4.26614081 2.34763962 6.35009566 5.28219267 8.8125 9.4375 C8.8125 10.0975 8.8125 10.7575 8.8125 11.4375 C9.733887 11.43473462 10.65527401 11.43196924 11.60458183 11.42912006 C34.09284795 11.36267501 56.58109699 11.31312966 79.06944084 11.28206348 C89.94493017 11.26663825 100.8203537 11.24563241 111.69580078 11.21118164 C121.18217075 11.18114562 130.66849304 11.16189349 140.15490925 11.15523452 C145.17123328 11.15134617 150.18742097 11.14230007 155.20370102 11.12030983 C159.9396837 11.09971951 164.67547583 11.09371099 169.41149902 11.09817696 C171.13583543 11.09736171 172.86017922 11.09153189 174.58447647 11.07988358 C202.7889608 10.89893937 229.54086977 17.98729377 250.8125 37.4375 C251.34584961 37.9231543 251.87919922 38.40880859 252.42871094 38.90917969 C269.92076088 55.0354254 279.87875945 73.14455182 284.8125 96.4375 C285.039375 97.43523437 285.26625 98.43296875 285.5 99.4609375 C291.04498225 128.1870261 285.51793382 160.96720858 270.0625 185.875 C267.80717228 189.19777651 265.34210356 192.31948866 262.8125 195.4375 C264.10333253 198.32797667 265.37411046 200.11948857 267.75 202.1875 C282.15294635 216.22962097 290.36198877 235.16843471 294.8125 254.4375 C294.99280762 255.1903125 295.17311523 255.943125 295.35888672 256.71875 C296.2852594 262.27100309 296.03837727 267.95420737 296.05273438 273.57202148 C296.06233808 275.83681433 296.0933449 278.10065807 296.125 280.36523438 C296.35458655 311.51261896 282.06042654 338.81877278 260.58203125 360.7109375 C238.20939341 382.0717475 209.32900163 389.79408066 179.19238281 389.66455078 C177.33841966 389.66398565 175.48445606 389.66430522 173.63049316 389.66543579 C168.63132333 389.66600631 163.63225074 389.65430099 158.63310337 389.64028788 C153.39609338 389.62773009 148.15908083 389.62660605 142.92205811 389.62423706 C133.02013194 389.61803707 123.11825027 389.60164639 113.21634364 389.58153808 C101.93696335 389.55913285 90.65758087 389.54817405 79.37818384 389.53814721 C56.18959795 389.51727878 33.00105148 389.48213176 9.8125 389.4375 C9.8125 386.7975 9.8125 384.1575 9.8125 381.4375 C11.04687805 381.42719254 12.2812561 381.41688507 13.55303955 381.40626526 C19.58223754 381.35581456 25.61143156 381.30489698 31.640625 381.25390625 C32.77067396 381.24437109 33.90072292 381.23483593 35.06501579 381.22501183 C48.86217768 381.10831762 62.65927501 380.98656246 76.45629883 380.85449219 C80.31894617 380.81764529 84.18159355 380.78080244 88.04424095 380.74396133 C90.62817659 380.71927767 93.21211137 380.69450457 95.7960453 380.6696434 C110.51785223 380.52867916 125.23921644 380.40967109 139.96157837 380.34873962 C146.08165509 380.32300904 152.2015876 380.28165419 158.32153511 380.23463154 C162.25949077 380.20530264 166.19705806 380.1843906 170.13513184 380.18508911 C203.16526809 380.18192868 232.66016297 374.58983703 256.8125 350.4375 C257.58207031 349.66792969 258.35164063 348.89835937 259.14453125 348.10546875 C277.0417735 329.23256764 286.23634593 302.86868444 286.0625 277.125 C286.07023437 275.99126953 286.07796875 274.85753906 286.0859375 273.68945312 C286.02817803 248.34748455 276.72109294 225.42287991 258.8125 207.3125 C258.1525 206.69375 257.4925 206.075 256.8125 205.4375 C254.24759874 206.5367434 252.68406808 207.56593192 250.6875 209.5625 C250.06875 210.18125 249.45 210.8 248.8125 211.4375 C248.1525 211.4375 247.4925 211.4375 246.8125 211.4375 C248.48313677 214.68050079 250.340082 217.00227827 253 219.4375 C266.89336426 233.00844442 273.82728533 253.79393105 274.05908203 272.8203125 C274.08813414 297.72211639 267.31167239 319.4776975 250.8125 338.4375 C250.10480469 339.25734375 249.39710938 340.0771875 248.66796875 340.921875 C233.32614855 357.43069822 209.05407358 367.28303698 186.8181684 368.55124521 C181.51485005 368.72553878 176.21040902 368.68858571 170.9050293 368.66455078 C169.13958747 368.66398543 167.37414517 368.66430564 165.60870361 368.66543579 C160.85545073 368.66600547 156.10230047 368.65431407 151.34907126 368.64028788 C146.36698167 368.62771578 141.38488927 368.62660494 136.40278625 368.62423706 C126.986091 368.61804123 117.56944264 368.60165628 108.15276796 368.58153808 C97.4247449 368.55911979 86.69671951 368.54817079 75.96867883 368.53814721 C53.91659313 368.51728822 31.86454953 368.48214942 9.8125 368.4375 C9.8125 365.4675 9.8125 362.4975 9.8125 359.4375 C10.7193476 359.43511165 11.6261952 359.43272329 12.56052303 359.43026257 C34.68968988 359.37096591 56.81874914 359.29532277 78.94779873 359.20178509 C89.64951526 359.1569385 100.35119935 359.1174985 111.05297852 359.09106445 C120.38741323 359.0679938 129.72174427 359.03449559 139.05609661 358.98879844 C143.99241932 358.96498782 148.92864014 358.94617976 153.86501884 358.93988609 C158.52473531 358.9337797 163.18419149 358.91358298 167.84381104 358.88322449 C169.54112493 358.87453229 171.23847297 358.87070303 172.93580818 358.87249184 C199.06777314 358.89131276 223.14947314 352.57201902 242.8125 334.4375 C260.48083878 315.14111188 264.88941326 291.82990206 263.99902344 266.52001953 C262.83087557 247.21499993 253.16913113 232.63830377 239.8125 219.4375 C236.23479452 220.82047859 233.06404807 222.39366979 229.8125 224.4375 C231.39281683 228.15384947 233.74605761 230.70441524 236.4375 233.6875 C240.47573927 238.35358231 243.56214042 243.16607226 246.3125 248.6875 C246.63814941 249.3362207 246.96379883 249.98494141 247.29931641 250.65332031 C253.8948213 264.46079789 254.03804661 282.85355455 249.9140625 297.4609375 C243.00550323 316.1287466 230.967596 330.87228829 212.8125 339.4375 C212.03519531 339.81648438 211.25789062 340.19546875 210.45703125 340.5859375 C197.22796162 346.48029683 182.95931365 346.87644797 168.74804688 346.77807617 C167.00186681 346.77722749 165.25568568 346.77770974 163.50950623 346.77940369 C158.82249002 346.78025565 154.1357096 346.76276113 149.44874763 346.74168181 C144.53074501 346.72278004 139.61273549 346.72115403 134.69470215 346.71760559 C125.4055753 346.70832444 116.11655584 346.68376452 106.82747602 346.65355712 C96.24207369 346.61988992 85.65666591 346.60349629 75.07122326 346.58847082 C53.31825584 346.55721096 31.56538472 346.50452788 9.8125 346.4375 C9.8125 343.4675 9.8125 340.4975 9.8125 337.4375 C10.71511566 337.43603344 11.61773132 337.43456688 12.54769897 337.43305588 C34.56804483 337.39591241 56.58823769 337.33679812 78.60845947 337.25359726 C89.25753005 337.21388405 99.90652755 337.18145247 110.55566406 337.16650391 C119.84359946 337.15344726 129.13137355 337.12638078 138.41921806 337.08288693 C143.33150767 337.06036203 148.243599 337.0445839 153.15594482 337.04561615 C157.79191994 337.0463681 162.42745823 337.02820509 167.06332016 336.99633217 C168.75298948 336.98790397 170.44270822 336.98603428 172.13238907 336.99169731 C186.1131057 337.03226566 199.6979505 335.39635404 212.25 328.6875 C213.2407251 328.17207642 213.2407251 328.17207642 214.25146484 327.64624023 C228.18085474 320.13039469 235.675585 308.31871988 240.7890625 293.6328125 C244.58765727 280.53298568 244.29068135 265.81862244 238.37109375 253.41796875 C234.32967811 246.11341473 229.33638942 239.67863863 223.8125 233.4375 C223.28785156 232.83679688 222.76320313 232.23609375 222.22265625 231.6171875 C220.75791377 230.11567784 220.75791377 230.11567784 218 230.625 C214.79848736 231.39690118 214.79848736 231.39690118 211.6875 232.5 C208.8125 233.4375 208.8125 233.4375 204.8125 233.4375 C204.8125 234.0975 204.8125 234.7575 204.8125 235.4375 C205.4725 235.623125 206.1325 235.80875 206.8125 236 C217.01774395 240.89001272 224.24079332 250.79389195 228.0859375 261.17578125 C232.16905539 273.88613211 230.28769167 287.44871823 224.8125 299.4375 C217.3530468 313.12441526 205.49761348 319.40529312 191.09167862 323.98449612 C187.89888486 324.61908788 184.73973339 324.59111451 181.49798584 324.59571838 C180.75952872 324.60065636 180.02107159 324.60559434 179.26023698 324.61068195 C176.78514721 324.6260433 174.31008336 324.63441388 171.83496094 324.64282227 C170.06099215 324.65240186 168.28702564 324.66241199 166.51306152 324.67282104 C161.6952848 324.69986734 156.87749827 324.72087842 152.05968761 324.74082303 C147.025471 324.76268425 141.99128456 324.79007228 136.95709229 324.81687927 C127.42326361 324.8668043 117.88941818 324.91174385 108.35555673 324.95490164 C97.50196252 325.00427562 86.64839859 325.05919316 75.79483366 325.11458123 C53.46741736 325.22839836 31.13997201 325.33523801 8.8125 325.4375 C8.55855469 325.98019531 8.30460938 326.52289062 8.04296875 327.08203125 C7.69878906 327.79746094 7.35460937 328.51289062 7 329.25 C6.49533203 330.31154297 6.49533203 330.31154297 5.98046875 331.39453125 C3.96589495 334.91835098 1.5793592 336.95501516 -2.1875 338.4375 C-7.35847989 339.43328705 -12.00910464 339.69994015 -16.66796875 337 C-20.88288111 333.4376697 -23.85079994 330.24855399 -24.5234375 324.6328125 C-24.60275118 318.39875735 -24.62455771 314.23431914 -20.1875 309.4375 C-14.93998668 304.81469065 -11.8399561 304.08419 -4.94921875 304.15625 C0.21276445 304.68193994 2.83427254 307.35630123 6.1875 311.0625 C7.8125 313.4375 7.8125 313.4375 7.8125 315.4375 C31.15302268 315.44707561 54.49328737 315.42231284 77.83372593 315.3572216 C88.67232332 315.32778653 99.51072548 315.30937987 110.34936523 315.31738281 C119.8017716 315.32433373 129.2538755 315.31013662 138.70620769 315.27106392 C143.706317 315.25111994 148.70595205 315.24141356 153.70608711 315.25707626 C158.42347138 315.27151799 163.13995441 315.25744004 167.85722351 315.22254753 C169.57795551 315.21465345 171.29877034 315.21671176 173.01946831 315.23010826 C185.81606953 315.32121785 197.26415816 313.57539205 207.875 305.6875 C216.20681909 297.4627737 219.89400981 286.78307505 220.1875 275.3125 C219.92185145 265.07396202 216.21796181 257.16018375 209.1484375 249.67578125 C200.1404254 241.5109849 190.14605823 239.14517068 178.28735352 239.11865234 C177.25245285 239.10860672 176.21755219 239.0985611 175.15129089 239.08821106 C171.74800139 239.05744638 168.34479033 239.04036242 164.94140625 239.0234375 C162.57485787 239.00472048 160.20831613 238.98514666 157.84178162 238.9647522 C151.62598589 238.91348163 145.41016853 238.87382861 139.1942749 238.83660889 C132.84625928 238.79653751 126.49833323 238.74545944 120.15039062 238.6953125 C107.70449005 238.59861324 95.25853884 238.51418916 82.8125 238.4375 C82.8125 242.3975 82.8125 246.3575 82.8125 250.4375 C79.8425 250.4375 76.8725 250.4375 73.8125 250.4375 C73.8125 217.7675 73.8125 185.0975 73.8125 151.4375 C76.7825 151.4375 79.7525 151.4375 82.8125 151.4375 C82.8125 155.7275 82.8125 160.0175 82.8125 164.4375 C94.69658966 164.3992953 106.58036789 164.33972005 118.46421242 164.25359726 C123.98363988 164.21425346 129.50291092 164.18200105 135.02246094 164.16650391 C140.35894567 164.15125068 145.69499997 164.11665294 151.03129196 164.06919098 C153.05717583 164.05446603 155.08312118 164.04646415 157.10905838 164.04561615 C172.76082562 164.03248784 187.55294481 163.512769 199.8125 152.4375 C208.24554128 143.84197238 211.17320334 134.6435821 211.3125 122.8125 C211.24453162 115.93969733 210.7211513 110.28125408 206.8125 104.4375 C206.45027344 103.8084375 206.08804688 103.179375 205.71484375 102.53125 C201.52842624 95.83298199 195.16376992 92.50512478 187.77856636 90.09377098 C181.22767244 88.6443221 174.40552476 88.99805295 167.72631836 89.00512695 C166.00086774 88.99609996 164.27542352 88.98577045 162.54998779 88.97424316 C157.88742917 88.94675711 153.22499251 88.93740008 148.56236339 88.93138909 C143.68162792 88.92198352 138.80098276 88.89577839 133.92030334 88.87138367 C124.68767838 88.82777497 115.455071 88.79919344 106.2223745 88.77606028 C95.70719883 88.74897841 85.19211426 88.70506875 74.67700374 88.65977156 C53.05555156 88.56700593 31.43407211 88.49528821 9.8125 88.4375 C9.8125 85.4675 9.8125 82.4975 9.8125 79.4375 C32.50092588 79.32043031 55.18930159 79.23239635 77.87796879 79.17843914 C88.41394746 79.15271418 98.94973789 79.11767334 109.4855957 79.06030273 C118.67418932 79.01029242 127.86264653 78.97816755 137.05137247 78.96705753 C141.91177579 78.9605685 146.77178906 78.94543786 151.63206673 78.90884972 C156.2179316 78.87461094 160.80325017 78.86450258 165.38923073 78.87196159 C167.0616326 78.87059939 168.73405502 78.86083431 170.40634537 78.84147263 C183.99966711 78.69196807 197.24359887 80.23808511 207.953125 89.55859375 C218.58607672 100.30323614 221.06826719 111.5740871 221.0612793 126.25146484 C220.97885346 132.41502022 220.39492944 137.77079249 217.8125 143.4375 C217.31943359 144.54738281 217.31943359 144.54738281 216.81640625 145.6796875 C213.40025041 152.51199917 208.09752381 160.45748198 201.03125 163.72265625 C200.2990625 163.95855469 199.566875 164.19445312 198.8125 164.4375 C198.8125 165.0975 198.8125 165.7575 198.8125 166.4375 C199.823125 166.39625 200.83375 166.355 201.875 166.3125 C205.8755683 166.43950217 208.99507199 167.30641022 212.8125 168.4375 C215.32835373 168.84376734 215.32835373 168.84376734 217.8125 168.4375 C219.55105325 166.8358618 219.55105325 166.8358618 220.8125 164.5625 C221.31394531 163.74007812 221.81539062 162.91765625 222.33203125 162.0703125 C232.00523253 144.86783845 236.13738991 126.07046883 232.12890625 106.32421875 C228.12182502 92.44076303 219.95274253 81.96969916 207.70800781 74.47265625 C198.43945403 69.41100401 187.91075196 67.33182408 177.44729614 67.27928162 C176.36767382 67.27187465 176.36767382 67.27187465 175.26624095 67.26431805 C172.86646102 67.24902067 170.46670768 67.2406036 168.06689453 67.23217773 C166.34189116 67.2225931 164.61689011 67.21258268 162.89189148 67.20217896 C158.21679092 67.17518725 153.54168032 67.15414669 148.8665452 67.13417697 C143.9778146 67.11228199 139.08911473 67.0849105 134.20040894 67.05812073 C124.94643333 67.0082413 115.69244062 66.96328487 106.43843162 66.92009836 C95.90159237 66.87068537 85.36478396 66.81578232 74.82797456 66.76041877 C53.15617845 66.64667165 31.48435289 66.53981681 9.8125 66.4375 C9.8125 63.4675 9.8125 60.4975 9.8125 57.4375 C32.7098818 57.32034136 55.60721368 57.23235317 78.50483513 57.17843914 C89.13825416 57.15273287 99.7714862 57.11772833 110.40478516 57.06030273 C119.68020517 57.0102346 128.95548966 56.97815403 138.23104107 56.96705753 C143.13569312 56.96057816 148.0399577 56.94551055 152.94448471 56.90884972 C157.57550012 56.87451891 162.20597421 56.86452056 166.8371048 56.87196159 C168.52275933 56.8706034 170.20843493 56.8608943 171.89397812 56.84147263 C191.66692757 56.62511414 209.69481662 61.21534229 224.5246582 74.90771484 C236.23504828 86.40028203 242.80609992 102.52265503 243.11987305 118.81103516 C243.15597719 137.30667177 238.94129562 152.35520774 229.23046875 168.046875 C227.69012133 170.45132466 227.69012133 170.45132466 226.8125 173.4375 C228.05426695 174.13976141 229.30635599 174.82379109 230.5625 175.5 C231.25859375 175.88285156 231.9546875 176.26570312 232.671875 176.66015625 C234.75522596 177.56743748 234.75522596 177.56743748 236.8671875 177.3671875 C243.1443934 174.36723769 246.0773163 164.12963617 248.29101562 157.87011719 C249.55645206 154.08502062 250.70276648 150.27072646 251.8125 146.4375 C252.15539062 145.29667969 252.49828125 144.15585937 252.8515625 142.98046875 C256.66573899 128.24063718 256.56065535 110.94802647 251.8125 96.4375 C251.39484375 95.05111328 251.39484375 95.05111328 250.96875 93.63671875 C245.21733649 76.10978187 233.81154949 63.27788388 217.8125 54.4375 C216.925625 53.90511719 216.03875 53.37273437 215.125 52.82421875 C200.8382921 44.82763085 184.4343598 43.83719556 168.4074707 43.89160156 C166.66083877 43.88283562 164.91421481 43.87233953 163.16760254 43.86027527 C158.49319118 43.83276387 153.8190463 43.82900274 149.14456582 43.82999516 C144.23451751 43.8268356 139.32458402 43.80115511 134.41459656 43.77801514 C125.14687207 43.73768215 115.87921753 43.71716824 106.6114189 43.70404124 C96.04763457 43.68809366 85.48396798 43.649646 74.92025244 43.60944796 C53.21770729 43.52736021 31.51516803 43.47307438 9.8125 43.4375 C9.8125 40.4675 9.8125 37.4975 9.8125 34.4375 C32.59680909 34.36722178 55.38110014 34.31442003 78.16549587 34.28206348 C88.74619115 34.26663623 99.32681883 34.24562647 109.9074707 34.21118164 C119.13636847 34.18115187 128.36521725 34.16189495 137.59416252 34.15523452 C142.47464033 34.15134513 147.35497806 34.14229222 152.23541069 34.12030983 C156.84252985 34.09972944 161.44945315 34.09370905 166.05661392 34.09817696 C167.7346065 34.09736128 169.41260662 34.09152539 171.09055901 34.07988358 C197.5017421 33.90585121 222.3836199 40.43445836 241.8125 59.4375 C252.94645122 71.48549109 259.28756471 85.53738868 262.8125 101.4375 C262.98612061 102.19160156 263.15974121 102.94570313 263.33862305 103.72265625 C268.35923923 132.48579483 260.7797805 160.48657925 244.8125 184.4375 C245.555 184.705625 246.2975 184.97375 247.0625 185.25 C249.68296481 186.38156435 251.5559989 187.72567158 253.8125 189.4375 C254.4725 189.4375 255.1325 189.4375 255.8125 189.4375 C262.36813493 180.63637173 266.75193125 170.56634166 270.8125 160.4375 C271.07828857 159.79345215 271.34407715 159.1494043 271.61791992 158.48583984 C280.77860975 135.45503153 279.3075694 103.07546323 269.97558594 80.40429688 C265.95581396 71.34169325 261.037736 63.17457903 254.8125 55.4375 C254.28398438 54.74527344 253.75546875 54.05304688 253.2109375 53.33984375 C238.08159561 34.59585614 213.29176286 24.20245977 189.79238796 21.65786457 C183.02849934 21.15767079 176.23015471 21.25573185 169.45092773 21.23217773 C167.69592566 21.2225863 165.94092583 21.2125755 164.18592834 21.20217896 C159.44282538 21.17526087 154.6997126 21.15418082 149.95657611 21.13417697 C144.99178981 21.11223616 140.02703332 21.08488725 135.06227112 21.05812073 C125.67027266 21.00830291 116.27825757 20.96332381 106.88622671 20.92009836 C96.18970847 20.87063246 85.49322014 20.81574915 74.79673088 20.76041877 C52.80201516 20.64676632 30.80727084 20.53989115 8.8125 20.4375 C8.51593506 21.38906982 8.21937012 22.34063965 7.91381836 23.32104492 C6.78110913 26.52632829 5.97521154 27.67542262 3.375 29.75 C2.47974609 30.48669922 2.47974609 30.48669922 1.56640625 31.23828125 C-3.07238373 34.41001516 -8.81795286 34.19934571 -14.1875 33.4375 C-18.85889792 31.30374565 -21.55279127 28.48873634 -24.1875 24.125 C-25.75098763 18.35963937 -26.39741935 13.14383013 -23.5625 7.6875 C-18.08019215 -0.70179671 -9.39876106 -4.16536002 0 0 Z " fill="#BD2A30" transform="translate(541.1875,250.5625)"/>
<path d="M0 0 C3.54180266 1.93796749 5.80825708 3.64536924 8.3125 6.8125 C8.70967114 8.80080737 9.05179495 10.80174293 9.3125 12.8125 C10.72053768 12.80835193 10.72053768 12.80835193 12.15702057 12.80412006 C35.05349879 12.73736416 57.94996431 12.68814832 80.84651947 12.65706348 C91.91936208 12.6416295 102.9921402 12.62060665 114.06494141 12.58618164 C123.7219572 12.55617271 133.37892625 12.53689982 143.03598738 12.53023452 C148.14390827 12.52634165 153.25169552 12.51726602 158.35957336 12.49530983 C163.1792681 12.47476264 167.99877568 12.46870258 172.81851006 12.47317696 C174.57593749 12.47235983 176.33337198 12.4665038 178.09076118 12.45488358 C192.10480527 12.36686055 205.66573531 13.58625029 218.9375 18.5 C219.63568848 18.75418701 220.33387695 19.00837402 221.05322266 19.27026367 C247.36207182 29.2518518 267.81071846 50.60332634 279.5625 75.8203125 C292.43392916 104.64172693 292.83967651 138.53379608 282.125 168.125 C277.43971428 179.82418651 271.675851 190.33403553 263.3125 199.8125 C262.62542969 200.63105469 261.93835938 201.44960938 261.23046875 202.29296875 C247.78291393 217.92120813 229.61920807 230.1588794 209.3125 234.8125 C207.9925 234.8125 206.6725 234.8125 205.3125 234.8125 C209.17574421 241.23310304 213.34168642 247.29227041 217.875 253.25 C223.10463019 260.12625588 228.09364882 267.14508384 233.02294922 274.23901367 C236.95530371 279.8918409 240.95071721 285.49292629 245 291.0625 C249.45057516 297.19203465 253.80700309 303.37482344 258.07666016 309.6315918 C261.79612885 315.07925101 265.58101636 320.47904421 269.375 325.875 C279.14552286 339.80095385 288.43527093 354.02125036 297.68115234 368.29931641 C299.29837834 370.79074478 300.92346275 373.27687329 302.55078125 375.76171875 C303.05875244 376.5398291 303.56672363 377.31793945 304.09008789 378.11962891 C305.04897731 379.58841028 306.01028308 381.0556179 306.97436523 382.52099609 C308.76035632 385.26363546 310.27271695 387.69315084 311.3125 390.8125 C307.28240723 392.00515802 304.32046702 392.17011772 300.3125 390.8125 C296.14654199 386.73086156 293.48392839 381.20258466 290.65234375 376.16308594 C288.67113667 372.68730938 286.50220364 369.34689801 284.3125 366 C283.87719971 365.32630371 283.44189941 364.65260742 282.9934082 363.95849609 C270.88598763 345.28110868 258.1510656 326.99156051 245.3125 308.8125 C244.27724727 307.34381801 243.24208962 305.87506898 242.20703125 304.40625 C239.73401299 300.89873543 237.2577437 297.39353108 234.78027344 293.88916016 C232.28929014 290.36482484 229.80105097 286.83855299 227.3125 283.3125 C226.31251278 281.89582432 225.31251278 280.47915764 224.3125 279.0625 C222.3125 276.22916667 220.3125 273.39583333 218.3125 270.5625 C217.81661377 269.8600415 217.32072754 269.15758301 216.80981445 268.43383789 C215.81858703 267.02950476 214.82753629 265.62504689 213.83666992 264.22045898 C211.20395043 260.48900111 208.5674173 256.76030826 205.92578125 253.03515625 C205.09723633 251.86533203 205.09723633 251.86533203 204.25195312 250.671875 C203.1879686 249.16977921 202.12290813 247.66844482 201.05664062 246.16796875 C200.58033203 245.49507812 200.10402344 244.8221875 199.61328125 244.12890625 C199.19216064 243.53537354 198.77104004 242.94184082 198.3371582 242.33032227 C197.3125 240.8125 197.3125 240.8125 196.3125 238.8125 C194.54175083 238.78544271 192.77088289 238.76607805 191 238.75 C189.52080078 238.73259766 189.52080078 238.73259766 188.01171875 238.71484375 C185.21286151 238.68920138 185.21286151 238.68920138 182.3125 239.8125 C182.63412109 240.26463867 182.95574219 240.71677734 183.28710938 241.18261719 C189.0146549 249.24285065 194.70060966 257.31604069 200.15234375 265.56640625 C209.62985169 279.80837569 219.46428123 293.81352876 229.24658203 307.84667969 C231.32176131 310.82579548 233.39381783 313.80705813 235.46484375 316.7890625 C236.14514648 317.7680249 236.82544922 318.7469873 237.52636719 319.75561523 C238.87089353 321.69163644 240.21402089 323.62863006 241.55566406 325.56665039 C244.66258673 330.04593943 247.79587665 334.4983251 251.01953125 338.89453125 C251.58833008 339.67650879 252.15712891 340.45848633 252.74316406 341.26416016 C253.80073446 342.71317716 254.86852256 344.15481345 255.94824219 345.58740234 C259.37605003 350.30093714 259.37605003 350.30093714 259.05249023 352.90551758 C258.03697439 355.52253976 256.73631196 356.45801684 254.3125 357.8125 C250.525893 356.55029767 250.10677284 355.34000573 248 352 C244.32919686 346.32571822 240.5175504 340.77448058 236.625 335.25 C230.28689494 326.23117426 224.0465147 317.14907539 217.83544922 308.04248047 C215.46037444 304.56477398 213.07458769 301.0944672 210.6875 297.625 C210.29514664 297.05449417 209.90279327 296.48398834 209.49855042 295.89619446 C207.26535375 292.64937757 205.03081797 289.40350722 202.79223633 286.16040039 C196.48994279 277.02301067 190.25225967 267.8441358 184.08325195 258.61621094 C183.0934039 257.13732193 182.10146949 255.65982765 181.10766602 254.18359375 C179.64676485 252.01335466 178.19183692 249.83922595 176.73828125 247.6640625 C176.2915657 247.00274323 175.84485016 246.34142395 175.38459778 245.6600647 C172.3125 241.04082087 172.3125 241.04082087 172.3125 238.8125 C167.0325 238.8125 161.7525 238.8125 156.3125 238.8125 C162.25451286 248.53579378 168.436597 257.96452406 175.01196289 267.26928711 C178.70909488 272.50676677 182.3375705 277.77843693 185.875 283.125 C191.15488212 291.09902865 196.50596724 299.02338679 201.875 306.9375 C210.64221784 319.86340047 219.38845642 332.80334707 228.125 345.75 C229.0394841 347.10511688 229.0394841 347.10511688 229.97244263 348.48760986 C233.4194817 353.59566827 236.86615602 358.7039726 240.3125 363.8125 C238.640625 367.65625 238.640625 367.65625 235.6875 369.0625 C234.90375 369.31 234.12 369.5575 233.3125 369.8125 C225.00946869 357.96937877 216.77493096 346.09048309 208.78295898 334.03491211 C204.15147456 327.05409617 199.46104542 320.11481065 194.75 313.1875 C186.17986636 300.58168177 177.6479979 287.95022879 169.125 275.3125 C168.49794159 274.38298523 167.87088318 273.45347046 167.224823 272.49578857 C163.74583679 267.33846967 160.2700966 262.17899065 156.7979126 257.01708984 C155.43860023 254.9996529 154.07445027 252.98559914 152.70849609 250.97265625 C151.98355957 249.89886719 151.25862305 248.82507813 150.51171875 247.71875 C149.90545654 246.82478516 149.29919434 245.93082031 148.67456055 245.00976562 C147.3125 242.8125 147.3125 242.8125 146.3125 239.8125 C141.0325 240.1425 135.7525 240.4725 130.3125 240.8125 C131.14007813 242.01777344 131.96765625 243.22304688 132.8203125 244.46484375 C141.86827596 257.6748704 150.77926995 270.97165422 159.63330078 284.31225586 C163.82338696 290.62021499 168.04035242 296.89726893 172.40771484 303.08447266 C176.9757477 309.62679503 181.41064105 316.2617265 185.875 322.875 C186.41431152 323.67321167 186.95362305 324.47142334 187.50927734 325.29382324 C196.62041336 338.7801552 205.66990104 352.3068712 214.67016602 365.86743164 C215.11260147 366.53321732 215.55503693 367.19900299 216.01087952 367.88496399 C216.83606606 369.12687197 217.66028964 370.36942053 218.48338318 371.61271667 C220.22820998 374.34616175 220.22820998 374.34616175 222.3125 376.8125 C224.16546708 376.9192309 226.02010024 376.99749726 227.875 377.0625 C234.60296073 377.59049692 239.1937881 379.25078925 243.6875 384.3828125 C246.73624523 388.9347585 247.08915328 393.47064083 246.3125 398.8125 C244.65908684 404.03380472 242.48377942 407.26691249 238.3125 410.8125 C232.75250106 412.66583298 226.29186878 413.1366639 220.8515625 410.71875 C216.27358845 407.51927371 213.7985535 404.29232229 212.3125 398.8125 C211.53250646 391.26830021 211.53250646 391.26830021 213.39453125 387.79296875 C214.60447005 385.18259015 214.29293377 384.51917495 213.3125 381.8125 C211.88952022 379.49164256 210.43568818 377.2550511 208.89453125 375.015625 C208.44672806 374.35483948 207.99892487 373.69405396 207.53755188 373.01324463 C206.59762295 371.62722252 205.65523379 370.24286593 204.71051025 368.86010742 C203.40146327 366.94280081 202.1000331 365.0206436 200.80224609 363.09570312 C198.66848023 359.93111541 196.52909545 356.77037988 194.38790894 353.61080933 C191.89764756 349.9356218 189.40985354 346.2587644 186.921875 342.58203125 C186.39311264 341.80066299 185.86435028 341.01929474 185.31956482 340.21424866 C178.78984575 330.56390839 172.26743443 320.90864066 165.75 311.25 C165.13899445 310.34456451 164.52798889 309.43912903 163.89846802 308.5062561 C154.64049855 294.78349372 145.42705357 281.03177951 136.27514648 267.23803711 C132.22095287 261.13289676 128.13582363 255.05712126 123.89599609 249.07836914 C121.99134895 246.35295593 120.15687256 243.57905884 118.3125 240.8125 C107.4225 240.4825 96.5325 240.1525 85.3125 239.8125 C85.3125 278.0925 85.3125 316.3725 85.3125 355.8125 C86.9625 356.1425 88.6125 356.4725 90.3125 356.8125 C92.078125 358.37109375 92.078125 358.37109375 93.5625 360.25 C94.06265625 360.86746094 94.5628125 361.48492188 95.078125 362.12109375 C98.4764903 366.77771456 97.82760807 372.26964698 97.3125 377.8125 C95.01620541 382.75836526 91.99926135 385.12010518 87.3125 387.8125 C82.31423769 389.47858744 77.72354599 389.90808536 72.828125 387.68359375 C68.19862537 384.78637421 64.87402162 382.22577495 63.3125 376.8125 C62.38892198 370.50669143 63.1318337 365.98729178 66.53515625 360.6015625 C68.3125 358.8125 68.3125 358.8125 71.86859989 357.21241379 C73.77936845 356.20847678 73.77936845 356.20847678 75.3125 354.8125 C76.04710095 351.74450044 76.25745829 349.70073122 76.19224548 346.62481689 C76.20231001 345.79243807 76.21237454 344.96005924 76.22274405 344.10245681 C76.24802031 341.30861744 76.22334528 338.51744772 76.19897461 335.72363281 C76.20686105 333.72305417 76.2178203 331.72248562 76.23162842 329.72193909 C76.26041198 324.28611276 76.24609356 318.85114517 76.22418666 313.41531849 C76.20858014 307.73642633 76.23240344 302.05770494 76.25209045 296.37884521 C76.283363 285.6230496 76.27904204 274.8675728 76.26201588 264.11175704 C76.24436053 251.86757531 76.26625893 239.62356505 76.29152286 227.37940836 C76.34260815 202.19038196 76.34388164 177.00154907 76.3125 151.8125 C79.2825 151.8125 82.2525 151.8125 85.3125 151.8125 C85.3125 156.1025 85.3125 160.3925 85.3125 164.8125 C97.60500602 164.77432239 109.89721033 164.7147857 122.18947887 164.62859726 C127.89838433 164.58922665 133.60713793 164.55698719 139.31616211 164.54150391 C144.83418401 164.52626861 150.35178815 164.49170172 155.86962318 164.44419098 C157.9661119 164.4294478 160.06266028 164.42146308 162.15920067 164.42061615 C178.20368896 164.40762604 192.67753044 163.73211287 205.0546875 152.1875 C213.68174535 142.91663186 214.937471 132.04421952 214.71875 119.9296875 C214.2489248 110.77145197 209.90819385 103.30251137 203.16015625 97.20703125 C195.60268267 91.50297614 187.05938754 89.57434003 177.70678711 89.5340271 C176.98533005 89.5282347 176.26387299 89.5224423 175.52055359 89.51647437 C173.12693702 89.49960295 170.73351475 89.49660908 168.33984375 89.49365234 C166.61454299 89.48434527 164.88924671 89.47417544 163.16395569 89.46321106 C158.49723234 89.43598489 153.83053907 89.42078359 149.16375732 89.40778303 C144.28036056 89.39212011 139.3970249 89.36533999 134.51367188 89.3397522 C125.27393547 89.29302031 116.0341875 89.25624917 106.79439354 89.22307932 C96.27200037 89.1848184 85.74966866 89.13541865 75.22732735 89.08509517 C53.58909698 88.98185847 31.95082768 88.89257124 10.3125 88.8125 C10.3125 85.8425 10.3125 82.8725 10.3125 79.8125 C33.34808832 79.74235478 56.38365897 79.68948479 79.4193325 79.65706348 C90.11569163 79.64160821 100.81198431 79.62054427 111.50830078 79.58618164 C120.83345066 79.55623831 130.15855241 79.53691526 139.48374903 79.53023452 C144.41933504 79.52633063 149.35478337 79.51718382 154.29032516 79.49530983 C158.9409232 79.47486672 163.59132754 79.46868197 168.24196625 79.47317696 C169.9438622 79.47235525 171.64576498 79.46643638 173.34762192 79.45488358 C189.12366995 79.35309141 201.14790362 81.92098878 213.0625 92.9375 C220.1625773 100.41457255 224.25005167 109.58643478 225.3125 119.8125 C225.395 120.5653125 225.4775 121.318125 225.5625 122.09375 C226.2990756 135.90454245 221.18880079 148.26268986 212.69140625 158.828125 C203.60264453 168.85409716 189.51545908 173.49783847 176.26858521 174.15905762 C170.46101798 174.32220557 164.65639569 174.26363773 158.84765625 174.203125 C156.71675655 174.1956475 154.58584989 174.18996172 152.4549408 174.18597412 C146.89662062 174.17083655 141.33873088 174.1316595 135.78057861 174.0871582 C130.08880432 174.04594673 124.39695921 174.02790829 118.70507812 174.0078125 C107.57403155 173.96515181 96.44330183 173.89704756 85.3125 173.8125 C85.3125 178.1025 85.3125 182.3925 85.3125 186.8125 C97.75258209 186.72785997 110.19253925 186.63288596 122.63244247 186.52497292 C128.40972271 186.47517574 134.18698612 186.42884501 139.96435547 186.390625 C145.5471009 186.35356184 151.12969957 186.30714654 156.71231842 186.25443649 C158.83476417 186.23600372 160.95724125 186.22085545 163.0797348 186.20915604 C182.30336858 186.09946744 200.1367141 185.55189483 215.4453125 172.328125 C217.3125 170.8125 217.3125 170.8125 219.4296875 169.859375 C221.8393755 168.51954848 222.20737764 167.30576386 223.3125 164.8125 C224.4179032 163.23607524 225.54469439 161.67452463 226.6875 160.125 C235.75830917 147.17745496 239.02491124 131.54427804 237.3125 115.8125 C234.05907089 99.90559571 226.59058399 86.60179752 213.3125 76.9375 C199.84693904 68.11952865 186.4054277 67.51281988 170.72387695 67.49365234 C168.96857753 67.48433874 167.21328249 67.47416797 165.45799255 67.46321106 C160.72326698 67.4360584 155.98857092 67.42080564 151.25378823 67.40778303 C146.294336 67.3920876 141.33494346 67.36531801 136.37553406 67.3397522 C126.99777482 67.29307748 117.62000421 67.25627883 108.24218863 67.22307932 C97.56011668 67.18477778 86.87810484 67.1353888 76.19608366 67.08509517 C54.23493357 66.98194359 32.27374538 66.89262893 10.3125 66.8125 C10.3125 63.8425 10.3125 60.8725 10.3125 57.8125 C33.57431468 57.74231998 56.83611183 57.6894678 80.09801102 57.65706348 C90.89968664 57.64161556 101.70129637 57.62056577 112.50292969 57.58618164 C121.9211223 57.5562157 131.33926717 57.53690993 140.75750613 57.53023452 C145.74122198 57.52633444 150.72480126 57.51721211 155.70847321 57.49530983 C160.40668195 57.47483089 165.10469886 57.46868911 169.802948 57.47317696 C171.52012934 57.47235683 173.23731762 57.46645952 174.95446014 57.45488358 C187.5930959 57.37391604 199.04110824 58.55368554 210.4375 64.4375 C211.11490234 64.78377441 211.79230469 65.13004883 212.49023438 65.48681641 C218.61425377 68.74877621 223.57666327 72.72680866 228.3125 77.8125 C229.01761719 78.56015625 229.72273437 79.3078125 230.44921875 80.078125 C236.37862987 86.89977131 239.94614156 94.51237813 243.3125 102.8125 C243.85777344 104.15054688 243.85777344 104.15054688 244.4140625 105.515625 C249.19620317 119.7279683 246.82699859 135.87847668 242.3125 149.8125 C242.01214844 150.75609375 241.71179688 151.6996875 241.40234375 152.671875 C239.08641644 159.12839962 235.5035065 164.42035968 231.3125 169.8125 C230.73886719 170.575625 230.16523438 171.33875 229.57421875 172.125 C220.74639128 183.01328399 208.53221958 188.97600795 195.3125 192.8125 C194.13522339 193.15787811 192.95794678 193.50325623 191.74499512 193.85910034 C186.83255457 195.07069011 182.07813287 195.07870661 177.04101562 195.03955078 C176.04498322 195.03984283 175.04895081 195.04013489 174.0227356 195.04043579 C170.7546495 195.03905065 167.48679591 195.0235279 164.21875 195.0078125 C161.94331995 195.00407947 159.66788829 195.00123387 157.39245605 194.99923706 C151.42154454 194.99162345 145.45073127 194.97199448 139.4798584 194.9498291 C133.37981495 194.92932168 127.27975553 194.92022489 121.1796875 194.91015625 C109.22391531 194.88874643 97.26821585 194.85463796 85.3125 194.8125 C85.3125 199.4325 85.3125 204.0525 85.3125 208.8125 C97.61449284 208.77419449 109.91618721 208.71447709 122.2179451 208.62859726 C127.93225378 208.58935278 133.64641366 208.55705266 139.36083984 208.54150391 C144.89185806 208.52618398 150.4224665 208.49147283 155.95330048 208.44419098 C158.0467952 208.42953342 160.14034848 208.42146815 162.23389435 208.42061615 C189.3383115 208.39852471 214.64697323 203.91879453 235.0625 184.625 C240.57751366 178.89511567 244.47248421 172.76283736 248.3125 165.8125 C248.72113281 165.13960937 249.12976563 164.46671875 249.55078125 163.7734375 C259.21690661 146.82972741 260.12459863 121.28486249 255.25 102.8125 C249.95317533 84.33946608 239.35891424 66.63469215 222.42626953 56.70654297 C210.36545579 50.02621334 198.62350928 45.67402566 184.68154907 45.65428162 C183.55904945 45.64687465 183.55904945 45.64687465 182.41387308 45.63931805 C179.91735632 45.62401368 177.42086514 45.61560168 174.92431641 45.60717773 C173.13034848 45.59759365 171.33638279 45.58758326 169.54241943 45.57717896 C164.67930778 45.55018127 159.81618647 45.52914393 154.95304155 45.50917697 C149.86812113 45.48728569 144.78323028 45.45991239 139.69833374 45.43312073 C130.07248984 45.3832363 120.44662949 45.33828172 110.82075346 45.29509836 C99.86070657 45.24568965 88.90068937 45.190785 77.94067121 45.13541877 C55.39797518 45.02166398 32.85525066 44.9148108 10.3125 44.8125 C10.3125 41.8425 10.3125 38.8725 10.3125 35.8125 C33.53978561 35.76568861 56.76706339 35.73046647 79.99438667 35.70887566 C90.78029079 35.69858226 101.56616553 35.68455911 112.35205078 35.66162109 C121.75781045 35.64162776 131.16354882 35.6287695 140.56932914 35.62432301 C145.54525062 35.62172567 150.52111121 35.61566148 155.49701309 35.60103989 C160.19027539 35.58736189 164.8834523 35.58329781 169.57673264 35.58628464 C171.28984289 35.58573901 173.00295631 35.5818229 174.71604919 35.57408905 C190.75599053 35.50529022 204.58978315 37.04624585 219.3125 43.8125 C220.76462891 44.47572266 220.76462891 44.47572266 222.24609375 45.15234375 C242.52273251 55.30537767 255.63807535 73.92353348 263.3125 94.8125 C270.38089494 119.1409291 269.27631722 146.78820995 257.5625 169.5 C245.01020879 191.12856331 226.38483436 206.36744825 202.58984375 214.0078125 C192.6062124 216.45909743 182.40608615 216.96849306 172.15942383 216.92602539 C170.73786987 216.92624443 170.73786987 216.92624443 169.28759766 216.9264679 C166.19821776 216.92577893 163.10890043 216.9180348 160.01953125 216.91015625 C157.86048923 216.90828845 155.70144678 216.90686626 153.54240417 216.90586853 C147.8921489 216.90207184 142.24191982 216.89226621 136.5916748 216.88116455 C130.81307326 216.87088886 125.03446744 216.86635778 119.25585938 216.86132812 C107.94139482 216.85064109 96.6269496 216.83359932 85.3125 216.8125 C85.3125 221.1025 85.3125 225.3925 85.3125 229.8125 C98.00560472 229.75088042 110.69851073 229.67348719 123.39139938 229.57678509 C129.2872858 229.53234457 135.18310728 229.49303286 141.07910156 229.46606445 C146.78512341 229.43976589 152.49089169 229.39918299 158.19675446 229.34931374 C160.35723937 229.33282237 162.51776795 229.32119918 164.67830658 229.31488609 C195.10945839 229.21710315 222.90825387 224.92291496 246.3125 203.8125 C247.08207031 203.12542969 247.85164063 202.43835938 248.64453125 201.73046875 C263.38399087 187.81703839 272.88073898 169.47552392 277.3125 149.8125 C277.53679687 148.83925781 277.76109375 147.86601562 277.9921875 146.86328125 C283.37204061 118.67432487 277.31923549 89.08914694 262.3125 64.8125 C259.87534457 61.23563096 257.22616073 58.01042032 254.3125 54.8125 C253.42820312 53.83539063 252.54390625 52.85828125 251.6328125 51.8515625 C234.96396992 34.03450318 211.94935954 23.55301258 187.49413586 22.67548561 C186.14986247 22.66495941 184.80554166 22.65957985 183.46122742 22.65859985 C182.71330219 22.6542176 181.96537696 22.64983535 181.19478732 22.6453203 C178.71147978 22.63206255 176.22820759 22.62578344 173.74487305 22.61962891 C171.95547836 22.61171849 170.16608523 22.60344897 168.37669373 22.59484863 C162.52588395 22.56876689 156.67506745 22.55334853 150.82421875 22.5390625 C148.80720325 22.53369968 146.7901878 22.52832217 144.77317238 22.52293015 C136.38922971 22.50133396 128.00528888 22.48259298 119.62132549 22.47130775 C107.61047924 22.45503087 95.59995439 22.42172561 83.58922929 22.36490691 C75.13728629 22.32628305 66.68542961 22.30668485 58.23340064 22.30138719 C53.18572932 22.29772729 48.13840192 22.28563567 43.09082603 22.25328445 C38.35057019 22.22333177 33.61086886 22.21684583 28.87053871 22.22866821 C27.12859663 22.22888993 25.38662968 22.22050408 23.64477539 22.20301437 C21.27212446 22.18048054 18.90151233 22.18854105 16.52885437 22.20449829 C15.83489726 22.1906162 15.14094015 22.17673412 14.42595404 22.16243136 C12.27522001 22.14245457 12.27522001 22.14245457 9.3125 22.8125 C7.38349064 25.15934837 7.38349064 25.15934837 6.3125 27.8125 C2.02472969 32.13300138 -1.31067582 33.98966759 -7.375 34.1875 C-12.39984699 34.13930003 -15.55531638 33.62524505 -19.3515625 30.2734375 C-24.14701122 25.02929182 -24.221943 19.72489376 -24.02734375 12.875 C-23.47445659 7.8926605 -21.71229514 5.48788359 -17.921875 2.3515625 C-11.81271084 -2.00181826 -7.20226963 -2.31937496 0 0 Z " fill="#BD2B31" transform="translate(233.6875,250.1875)"/>
<path d="M0 0 C296.01 0 592.02 0 897 0 C897 3.96 897 7.92 897 12 C600.99 12 304.98 12 0 12 C0 8.04 0 4.08 0 0 Z " fill="#F7DA33" transform="translate(66,807)"/>
<path d="M0 0 C9.94451057 5.50121861 17.83374789 13.71956784 21.73046875 24.51953125 C24.29232132 35.45315202 22.59624638 46.43179105 16.76171875 55.9453125 C9.95438175 65.41857705 1.70993342 70.7685466 -9.61328125 73.3203125 C-23.43870982 74.2880925 -34.07323028 73.32502904 -45.05078125 64.0078125 C-53.18516656 56.10807292 -57.61648654 47.28128858 -57.98828125 35.8203125 C-57.58401395 23.86073825 -52.29607863 14.18111985 -43.74609375 5.95703125 C-31.55105133 -3.40143537 -14.28055829 -6.25457836 0 0 Z " fill="#BD2A31" transform="translate(416.61328125,708.6796875)"/>
<path d="M0 0 C23.22728561 -0.04681139 46.45456339 -0.08203353 69.68188667 -0.10362434 C80.46779079 -0.11391774 91.25366553 -0.12794089 102.03955078 -0.15087891 C111.44531045 -0.17087224 120.85104882 -0.1837305 130.25682914 -0.18817699 C135.23275062 -0.19077433 140.20861121 -0.19683852 145.18451309 -0.21146011 C149.87777539 -0.22513811 154.5709523 -0.22920219 159.26423264 -0.22621536 C160.97734289 -0.22676099 162.69045631 -0.2306771 164.40354919 -0.23841095 C180.44349053 -0.30720978 194.27728315 1.23374585 209 8 C209.96808594 8.44214844 210.93617188 8.88429688 211.93359375 9.33984375 C232.21023251 19.49287767 245.32557535 38.11103348 253 59 C260.06839494 83.3284291 258.96381722 110.97570995 247.25 133.6875 C234.69770879 155.31606331 216.07233436 170.55494825 192.27734375 178.1953125 C182.2937124 180.64659743 172.09358615 181.15599306 161.84692383 181.11352539 C160.42536987 181.11374443 160.42536987 181.11374443 158.97509766 181.1139679 C155.88571776 181.11327893 152.79640043 181.1055348 149.70703125 181.09765625 C147.54798923 181.09578845 145.38894678 181.09436626 143.22990417 181.09336853 C137.5796489 181.08957184 131.92941982 181.07976621 126.2791748 181.06866455 C120.50057326 181.05838886 114.72196744 181.05385778 108.94335938 181.04882812 C97.62889482 181.03814109 86.3144496 181.02109932 75 181 C75 178.36 75 175.72 75 173 C76.17081116 172.99635437 77.34162231 172.99270874 78.5479126 172.98895264 C89.66724924 172.95175708 100.78631521 172.89372104 111.9054451 172.81609726 C117.61975378 172.77685278 123.33391366 172.74455266 129.04833984 172.72900391 C134.57935806 172.71368398 140.1099665 172.67897283 145.64080048 172.63169098 C147.7342952 172.61703342 149.82784848 172.60896815 151.92139435 172.60811615 C179.0258115 172.58602471 204.33447323 168.10629453 224.75 148.8125 C230.26501366 143.08261567 234.15998421 136.95033736 238 130 C238.40863281 129.32710937 238.81726563 128.65421875 239.23828125 127.9609375 C248.90440661 111.01722741 249.81209863 85.47236249 244.9375 67 C239.64067533 48.52696608 229.04641424 30.82219215 212.11376953 20.89404297 C200.05295579 14.21371334 188.31100928 9.86152566 174.36904907 9.84178162 C173.24654945 9.83437465 173.24654945 9.83437465 172.10137308 9.82681805 C169.60485632 9.81151368 167.10836514 9.80310168 164.61181641 9.79467773 C162.81784848 9.78509365 161.02388279 9.77508326 159.22991943 9.76467896 C154.36680778 9.73768127 149.50368647 9.71664393 144.64054155 9.69667697 C139.55562113 9.67478569 134.47073028 9.64741239 129.38583374 9.62062073 C119.75998984 9.5707363 110.13412949 9.52578172 100.50825346 9.48259836 C89.54820657 9.43318965 78.58818937 9.378285 67.62817121 9.32291877 C45.08547518 9.20916398 22.54275066 9.1023108 0 9 C0 6.03 0 3.06 0 0 Z " fill="#FCD51E" transform="translate(244,286)"/>
<path d="M0 0 C10.3021875 -0.12375 10.3021875 -0.12375 20.8125 -0.25 C22.9572583 -0.28641602 25.1020166 -0.32283203 27.31176758 -0.36035156 C48.3762719 -0.56927908 48.3762719 -0.56927908 57 6.4375 C57.66 7.283125 58.32 8.12875 59 9 C59.598125 9.7425 60.19625 10.485 60.8125 11.25 C62.82850753 15.91864901 62.86878267 20.42929436 61.23828125 25.25390625 C59.47962461 29.02841437 57.78718639 31.98016726 54 34 C53.34 34 52.68 34 52 34 C52 34.66 52 35.32 52 36 C52.886875 36.2475 53.77375 36.495 54.6875 36.75 C59.34392061 38.50713985 62.0270005 40.5572766 64.8125 44.6875 C66.82840912 50.31082544 66.58157333 54.98159845 64.9375 60.6875 C61.28712414 66.92846519 55.9790347 70.95915708 49 73 C45.1941168 73.39704064 41.42067481 73.35037053 37.59765625 73.29296875 C36.16335266 73.28843689 36.16335266 73.28843689 34.70007324 73.28381348 C31.1541045 73.26820733 27.60829054 73.22632378 24.0625 73.1875 C16.121875 73.125625 8.18125 73.06375 0 73 C0 48.91 0 24.82 0 0 Z " fill="#BD282E" transform="translate(147,707)"/>
<path d="M0 0 C27.39 0 54.78 0 83 0 C83 4.62 83 9.24 83 14 C62.54 14 42.08 14 21 14 C21 18.95 21 23.9 21 29 C39.48 29 57.96 29 77 29 C77 33.62 77 38.24 77 43 C58.85 43 40.7 43 22 43 C22 48.28 22 53.56 22 59 C42.13 59 62.26 59 83 59 C83 63.95 83 68.9 83 74 C55.61 74 28.22 74 0 74 C0 49.58 0 25.16 0 0 Z " fill="#F7DC3B" transform="translate(878,707)"/>
<path d="M0 0 C23.26181468 -0.07018002 46.52361183 -0.1230322 69.78551102 -0.15543652 C80.58718664 -0.17088444 91.38879637 -0.19193423 102.19042969 -0.22631836 C111.6086223 -0.2562843 121.02676717 -0.27559007 130.44500613 -0.28226548 C135.42872198 -0.28616556 140.41230126 -0.29528789 145.39597321 -0.31719017 C150.09418195 -0.33766911 154.79219886 -0.34381089 159.490448 -0.33932304 C161.20762934 -0.34014317 162.92481762 -0.34604048 164.64196014 -0.35761642 C177.2805959 -0.43858396 188.72860824 0.74118554 200.125 6.625 C200.80240234 6.97127441 201.47980469 7.31754883 202.17773438 7.67431641 C208.30175377 10.93627621 213.26416327 14.91430866 218 20 C218.70511719 20.74765625 219.41023437 21.4953125 220.13671875 22.265625 C226.06612987 29.08727131 229.63364156 36.69987813 233 45 C233.36351562 45.89203125 233.72703125 46.7840625 234.1015625 47.703125 C238.88370317 61.9154683 236.51449859 78.06597668 232 92 C231.69964844 92.94359375 231.39929688 93.8871875 231.08984375 94.859375 C228.77391644 101.31589962 225.1910065 106.60785968 221 112 C220.42636719 112.763125 219.85273438 113.52625 219.26171875 114.3125 C210.43389128 125.20078399 198.21971958 131.16350795 185 135 C183.82272339 135.34537811 182.64544678 135.69075623 181.43249512 136.04660034 C176.52005457 137.25819011 171.76563287 137.26620661 166.72851562 137.22705078 C165.73248322 137.22734283 164.73645081 137.22763489 163.7102356 137.22793579 C160.4421495 137.22655065 157.17429591 137.2110279 153.90625 137.1953125 C151.63081995 137.19157947 149.35538829 137.18873387 147.07995605 137.18673706 C141.10904454 137.17912345 135.13823127 137.15949448 129.1673584 137.1373291 C123.06731495 137.11682168 116.96725553 137.10772489 110.8671875 137.09765625 C98.91141531 137.07624643 86.95571585 137.04213796 75 137 C75 134.36 75 131.72 75 129 C76.18857605 128.99191315 77.3771521 128.98382629 78.60174561 128.97549438 C89.84123486 128.89777447 101.0806069 128.80997134 112.31994247 128.71247292 C118.09722271 128.66267574 123.87448612 128.61634501 129.65185547 128.578125 C135.2346009 128.54106184 140.81719957 128.49464654 146.39981842 128.44193649 C148.52226417 128.42350372 150.64474125 128.40835545 152.7672348 128.39665604 C171.99086858 128.28696744 189.8242141 127.73939483 205.1328125 114.515625 C207 113 207 113 209.1171875 112.046875 C211.5268755 110.70704848 211.89487764 109.49326386 213 107 C214.1054032 105.42357524 215.23219439 103.86202463 216.375 102.3125 C225.44580917 89.36495496 228.71241124 73.73177804 227 58 C223.74657089 42.09309571 216.27808399 28.78929752 203 19.125 C189.53443904 10.30702865 176.0929277 9.70031988 160.41137695 9.68115234 C158.65607753 9.67183874 156.90078249 9.66166797 155.14549255 9.65071106 C150.41076698 9.6235584 145.67607092 9.60830564 140.94128823 9.59528303 C135.981836 9.5795876 131.02244346 9.55281801 126.06303406 9.5272522 C116.68527482 9.48057748 107.30750421 9.44377883 97.92968863 9.41057932 C87.24761668 9.37227778 76.56560484 9.3228888 65.88358366 9.27259517 C43.92243357 9.16944359 21.96124538 9.08012893 0 9 C0 6.03 0 3.06 0 0 Z " fill="#FCD51C" transform="translate(244,308)"/>
<path d="M0 0 C17 0 17 0 20.96875 2.45703125 C22.30249023 4.06201172 22.30249023 4.06201172 23.5 5.8125 C24.20974976 6.70219482 24.20974976 6.70219482 24.93383789 7.60986328 C25.88681309 8.81255372 26.81867451 10.03232207 27.72705078 11.26904297 C29.53057806 13.72148033 31.48804332 16.03776713 33.4375 18.375 C34.14003906 19.25027344 34.84257813 20.12554688 35.56640625 21.02734375 C39.13990124 25.39239943 42.85484156 29.63165378 46.57202148 33.87451172 C47.10255127 34.48182129 47.63308105 35.08913086 48.1796875 35.71484375 C48.65132324 36.25230225 49.12295898 36.78976074 49.60888672 37.34350586 C51.14393336 39.17139134 52.56782959 41.09043946 54 43 C54.33 28.81 54.66 14.62 55 0 C62.26 0 69.52 0 77 0 C77 24.09 77 48.18 77 73 C56 73 56 73 48.875 66.3125 C47.09179688 64.07397461 47.09179688 64.07397461 45.84375 62.15234375 C43.25402436 58.31979678 40.41550535 54.85416916 37.375 51.375 C36.48602673 50.32612541 35.5993013 49.2753415 34.71484375 48.22265625 C34.2751123 47.70074707 33.83538086 47.17883789 33.38232422 46.64111328 C32.92615723 46.0995459 32.46999023 45.55797852 32 45 C29.98034563 42.60316947 27.95926269 40.2075522 25.9375 37.8125 C25.4719873 37.25933105 25.00647461 36.70616211 24.52685547 36.13623047 C22.74063946 34.02029242 20.95908155 31.95908155 19 30 C18.67 44.52 18.34 59.04 18 74 C12.06 74 6.12 74 0 74 C0 49.58 0 25.16 0 0 Z " fill="#F6DB38" transform="translate(773,707)"/>
<path d="M0 0 C3.77702297 2.63513231 6.60374735 5.7074947 8.6875 9.875 C9.21529267 16.0867137 9.43153643 21.633349 5.6875 26.875 C3.25374354 29.25683632 0.7524524 31.3425238 -2.3125 32.875 C-2.3125 105.805 -2.3125 178.735 -2.3125 253.875 C1.1525 255.855 1.1525 255.855 4.6875 257.875 C8.61058793 262.93371864 10.15704218 267.13412934 10.10546875 273.45703125 C9.2188914 278.58592262 5.57668163 282.31532679 1.671875 285.5390625 C-2.66233495 288.4569755 -7.27278508 288.47136626 -12.3125 287.875 C-17.72057411 285.99719649 -21.02200478 282.42362574 -24.3125 277.875 C-25.97894026 272.87567921 -26.43337107 268.26719464 -24.1484375 263.390625 C-21.48304976 259.20801654 -19.02131001 255.83700417 -14.3125 253.875 C-13.6525 253.875 -12.9925 253.875 -12.3125 253.875 C-12.3125 180.945 -12.3125 108.015 -12.3125 32.875 C-13.9625 32.215 -15.6125 31.555 -17.3125 30.875 C-21.62038416 27.18252786 -24.70100254 23.49022674 -25.66796875 17.7734375 C-26.00217629 12.51644328 -24.91311753 8.88993543 -21.8515625 4.60546875 C-15.9582544 -2.02076346 -8.20019986 -2.78497354 0 0 Z " fill="#BC282E" transform="translate(254.3125,351.125)"/>
<path d="M0 0 C6.744375 -0.0825 13.48875 -0.165 20.4375 -0.25 C22.54825928 -0.28641602 24.65901855 -0.32283203 26.83374023 -0.36035156 C28.53368111 -0.37204967 30.23363331 -0.38223883 31.93359375 -0.390625 C33.2248114 -0.4213208 33.2248114 -0.4213208 34.54211426 -0.45263672 C42.26532937 -0.45702055 47.8903904 1.90699354 54.25 6.1875 C60.09965252 12.17009917 62.31626763 17.02621026 62.5625 25.5 C62.2873891 32.73252071 61.34442628 38.49170428 56.24609375 43.83984375 C53.94451447 45.8819548 51.75526616 47.62236692 49 49 C50.28952948 53.5266473 52.01197828 56.71557176 54.875 60.4375 C57.97313263 64.48392037 60.54021137 68.54921654 63 73 C57.35067124 73.95369677 51.534748 74.88994418 46 73 C41.46109413 69.27101486 38.65509971 63.95189196 35.96704102 58.80932617 C34.90640563 56.75452134 34.90640563 56.75452134 33 54 C31.07558585 53.49468134 31.07558585 53.49468134 28.8671875 53.48828125 C27.77833252 53.43861206 27.77833252 53.43861206 26.66748047 53.38793945 C25.28520264 53.35059692 25.28520264 53.35059692 23.875 53.3125 C20.94625 53.209375 18.0175 53.10625 15 53 C15 59.6 15 66.2 15 73 C10.05 73 5.1 73 0 73 C0 48.91 0 24.82 0 0 Z " fill="#BE2C32" transform="translate(66,707)"/>
<path d="M0 0 C4.29 0 8.58 0 13 0 C15.88195013 3.65961921 17.7915925 6.55222153 19.78759766 10.63134766 C22.33584646 15.60982327 25.2819801 20.37356127 28.125 25.1875 C29.29564323 27.20102565 30.46494806 29.21533011 31.6328125 31.23046875 C34.70653482 36.5165956 37.83778112 41.76640519 41 47 C44.93985866 41.43037564 48.346178 35.66123533 51.625 29.6875 C52.04918213 28.92985352 52.47336426 28.17220703 52.91040039 27.39160156 C55.31460363 23.09683439 57.6279811 18.77597976 59.85546875 14.38671875 C60.83964593 12.54867526 61.82529199 10.71141742 62.8125 8.875 C63.2367627 7.99158936 63.66102539 7.10817871 64.09814453 6.19799805 C65.45703125 3.7421875 65.45703125 3.7421875 69 0 C73.29 0 77.58 0 82 0 C82 24.42 82 48.84 82 74 C77.38 74 72.76 74 68 74 C66.47208917 72.47208917 66.83816543 71.07010592 66.79467773 68.93920898 C66.7647599 67.64798378 66.7647599 67.64798378 66.73423767 66.33067322 C66.71752518 65.39526199 66.70081268 64.45985077 66.68359375 63.49609375 C66.66281265 62.54307877 66.64203156 61.59006378 66.62062073 60.60816956 C66.55501823 57.5513559 66.49619082 54.49445344 66.4375 51.4375 C66.39432494 49.37043337 66.35071099 47.30337586 66.30664062 45.23632812 C66.19932599 40.15764405 66.09808909 35.0788703 66 30 C65.54149658 30.83660156 65.08299316 31.67320312 64.6105957 32.53515625 C62.88899641 35.67496397 61.16429975 38.81306159 59.4387207 41.95068359 C58.69602869 43.30211579 57.95414807 44.65399426 57.21313477 46.00634766 C55.45201088 49.21983466 53.68171052 52.42720489 51.88525391 55.62109375 C50.76060076 57.63678911 49.65988653 59.66659849 48.61083984 61.72265625 C47.41796875 63.9375 47.41796875 63.9375 45 67 C41.48046875 67.91796875 41.48046875 67.91796875 38 67 C35.98095938 64.72334654 34.74111735 62.93251041 33.3125 60.3125 C32.90459229 59.61439209 32.49668457 58.91628418 32.07641602 58.19702148 C30.6915285 55.81206718 29.34658023 53.40677121 28 51 C26.91099937 49.09772866 25.81977735 47.19672761 24.7265625 45.296875 C22.14613399 40.80687619 19.59174315 36.30295423 17.05639648 31.78735352 C16.12475425 30.04177177 16.12475425 30.04177177 15 29 C14.67 43.52 14.34 58.04 14 73 C9.38 73 4.76 73 0 73 C0 48.91 0 24.82 0 0 Z " fill="#BD2C33" transform="translate(261,707)"/>
<path d="M0 0 C1.69643276 1.64170912 3.35016496 3.31179671 5 5 C5.67804688 5.6703125 6.35609375 6.340625 7.0546875 7.03125 C21.50793594 22.03462209 28.46082071 42.41959337 28.1875 63.0625 C28.18685547 63.99126953 28.18621094 64.92003906 28.18554688 65.87695312 C28.0424845 88.52849653 19.82178177 108.96774843 5 126 C4.29230469 126.81984375 3.58460938 127.6396875 2.85546875 128.484375 C-12.48635145 144.99319822 -36.75842642 154.84553698 -58.9943316 156.11374521 C-64.29764995 156.28803878 -69.60209098 156.25108571 -74.9074707 156.22705078 C-76.67291253 156.22648543 -78.43835483 156.22680564 -80.20379639 156.22793579 C-84.95704927 156.22850547 -89.71019953 156.21681407 -94.46342874 156.20278788 C-99.44551833 156.19021578 -104.42761073 156.18910494 -109.40971375 156.18673706 C-118.826409 156.18054123 -128.24305736 156.16415628 -137.65973204 156.14403808 C-148.3877551 156.12161979 -159.11578049 156.11067079 -169.84382117 156.10064721 C-191.89590687 156.07978822 -213.94795047 156.04464942 -236 156 C-236 153.03 -236 150.06 -236 147 C-235.0931524 146.99761165 -234.1863048 146.99522329 -233.25197697 146.99276257 C-211.12281012 146.93346591 -188.99375086 146.85782277 -166.86470127 146.76428509 C-156.16298474 146.7194385 -145.46130065 146.6799985 -134.75952148 146.65356445 C-125.42508677 146.6304938 -116.09075573 146.59699559 -106.75640339 146.55129844 C-101.82008068 146.52748782 -96.88385986 146.50867976 -91.94748116 146.50238609 C-87.28776469 146.4962797 -82.62830851 146.47608298 -77.96868896 146.44572449 C-76.27137507 146.43703229 -74.57402703 146.43320303 -72.87669182 146.43499184 C-46.74472686 146.45381276 -22.66302686 140.13451902 -3 122 C14.66833878 102.70361188 19.07691326 79.39240206 18.18652344 54.08251953 C17.01837557 34.77749993 7.35663113 20.20080377 -6 7 C-4.47427344 3.67364118 -3.06655496 2.04436998 0 0 Z " fill="#FBD621" transform="translate(787,463)"/>
<path d="M0 0 C22.78430909 -0.07027822 45.56860014 -0.12307997 68.35299587 -0.15543652 C78.93369115 -0.17086377 89.51431883 -0.19187353 100.0949707 -0.22631836 C109.32386847 -0.25634813 118.55271725 -0.27560505 127.78166252 -0.28226548 C132.66214033 -0.28615487 137.54247806 -0.29520778 142.42291069 -0.31719017 C147.03002985 -0.33777056 151.63695315 -0.34379095 156.24411392 -0.33932304 C157.9221065 -0.34013872 159.60010662 -0.34597461 161.27805901 -0.35761642 C187.6892421 -0.53164879 212.5711199 5.99695836 232 25 C243.13395122 37.04799109 249.47506471 51.09988868 253 67 C253.17362061 67.75410156 253.34724121 68.50820313 253.52612305 69.28515625 C257.93653996 94.55245976 253.15044216 122.71615003 238.64111328 143.99267578 C237.44430326 145.67393899 236.22427771 147.33863181 235 149 C231.04 147.02 231.04 147.02 227 145 C227.43570313 144.37996094 227.87140625 143.75992188 228.3203125 143.12109375 C242.464706 122.08819692 247.91565561 96.07602482 244.453125 71.046875 C243.79308001 67.95199738 242.98364522 65.00605371 242 62 C241.7215625 61.07574219 241.443125 60.15148437 241.15625 59.19921875 C235.40483649 41.67228187 223.99904949 28.84038388 208 20 C207.113125 19.46761719 206.22625 18.93523437 205.3125 18.38671875 C191.0257921 10.39013085 174.6218598 9.39969556 158.5949707 9.45410156 C156.84833877 9.44533562 155.10171481 9.43483953 153.35510254 9.42277527 C148.68069118 9.39526387 144.0065463 9.39150274 139.33206582 9.39249516 C134.42201751 9.3893356 129.51208402 9.36365511 124.60209656 9.34051514 C115.33437207 9.30018215 106.06671753 9.27966824 96.7989189 9.26654124 C86.23513457 9.25059366 75.67146798 9.212146 65.10775244 9.17194796 C43.40520729 9.08986021 21.70266803 9.03557438 0 9 C0 6.03 0 3.06 0 0 Z " fill="#FBD620" transform="translate(551,285)"/>
<path d="M0 0 C5.07876391 3.02827231 8.92199981 6.30506194 10.83984375 12.05859375 C11.53263815 18.87107206 10.16014787 22.74944618 5.83984375 28.05859375 C1.14426634 32.41877277 -2.62953649 33.42715222 -8.8828125 33.3359375 C-13.83777167 32.73250336 -16.8633957 29.54777696 -19.97265625 25.93359375 C-22.16015625 23.05859375 -22.16015625 23.05859375 -23.16015625 21.05859375 C-29.40376079 20.81014912 -35.64445166 20.62937335 -41.8918457 20.50927734 C-44.01344957 20.45918998 -46.1347117 20.39109476 -48.25512695 20.30419922 C-60.35014601 19.39402153 -60.35014601 19.39402153 -71.43408203 23.15332031 C-73.6917661 25.67642153 -75.3797526 28.18850809 -77.16015625 31.05859375 C-78.42881043 32.11177308 -78.42881043 32.11177308 -79.72309399 33.18622875 C-82.90902615 36.94122515 -82.86167019 39.964821 -82.7993927 44.67024231 C-82.80774838 45.53614398 -82.81610405 46.40204565 -82.82471293 47.29418677 C-82.84665607 50.19498784 -82.83303183 53.09452453 -82.81958008 55.99536133 C-82.82803202 58.07489992 -82.83867554 60.1544306 -82.85134888 62.23394775 C-82.87953788 67.88027585 -82.87701596 73.52622461 -82.86905503 79.17260194 C-82.8659339 85.0730262 -82.89095283 90.97332882 -82.91300964 96.873703 C-82.95049144 108.04729586 -82.96260009 119.220767 -82.96563405 130.39441651 C-82.97032038 143.11502637 -83.00323008 155.83551396 -83.0385319 168.55606997 C-83.11051796 194.72356308 -83.14699143 220.89100963 -83.16015625 247.05859375 C-85.80015625 247.05859375 -88.44015625 247.05859375 -91.16015625 247.05859375 C-91.34704246 219.1643759 -91.48811412 191.27025188 -91.57465363 163.37553406 C-91.61590362 150.42348299 -91.67214154 137.47182092 -91.76367188 124.52001953 C-91.84341232 113.23113941 -91.89502282 101.942541 -91.91286421 90.65338707 C-91.92329343 84.67575583 -91.94780076 78.69893053 -92.0059967 72.72155762 C-92.06034242 67.09399375 -92.07703972 61.4675669 -92.0650177 55.83976555 C-92.06721662 53.77576452 -92.08310481 51.71172506 -92.11380005 49.64795113 C-92.33446364 34.04499133 -92.33446364 34.04499133 -89.44773865 29.16195679 C-87.45766216 27.1585638 -85.47397417 25.66104205 -83.16015625 24.05859375 C-81.89410032 22.67479552 -80.65954587 21.26086376 -79.47265625 19.80859375 C-78.40545333 18.52689099 -77.29915541 17.27693892 -76.16015625 16.05859375 C-75.52303711 15.36773682 -74.88591797 14.67687988 -74.22949219 13.96508789 C-69.67033914 11.13320544 -65.57183683 11.58753137 -60.3125 11.6953125 C-58.15950511 11.69544687 -56.00651005 11.69477133 -53.85351562 11.69335938 C-50.46703852 11.71428331 -47.08127494 11.7463253 -43.69506836 11.79418945 C-40.42105642 11.83290845 -37.1491793 11.82907595 -33.875 11.8203125 C-32.86138901 11.84711594 -31.84777802 11.87391937 -30.80345154 11.90153503 C-28.08091185 11.88256551 -25.77687677 11.81402927 -23.16015625 11.05859375 C-21.08319869 8.86197139 -20.36551605 6.91080805 -19.16015625 4.05859375 C-13.44992808 -0.36974646 -7.00743434 -3.05387283 0 0 Z " fill="#FBD519" transform="translate(379.16015625,355.94140625)"/>
<path d="M0 0 C5.17161884 2.91883033 8.73679621 6.57934757 10.875 12.1640625 C12.09325399 17.92984476 11.31146484 22.11616784 8.1875 27.1015625 C5.79843184 30.29828255 3.63223126 32.59854947 -0.125 34.1640625 C-0.785 34.1640625 -1.445 34.1640625 -2.125 34.1640625 C-2.13455247 50.65392407 -2.10998027 67.143326 -2.0447216 83.6330452 C-2.01521774 91.28945292 -1.99690426 98.94558281 -2.00488281 106.60205078 C-2.0118082 113.27505349 -1.99779003 119.94762628 -1.95856392 126.62052321 C-1.93852377 130.15431476 -1.92901172 133.68743107 -1.94457626 137.22126007 C-1.96155469 141.16516048 -1.93177641 145.10794943 -1.89794922 149.05175781 C-1.91017014 150.2249205 -1.92239105 151.39808319 -1.9349823 152.60679626 C-1.88880646 155.58344255 -1.8071495 158.26640041 -1.125 161.1640625 C1.62883973 163.92510085 1.62883973 163.92510085 4.875 165.1640625 C8.83128789 169.09215832 11.02310468 172.30982014 11.125 177.9140625 C11.03962751 183.31581281 10.15539695 186.92061643 6.1875 190.82421875 C1.16723983 195.24832302 -1.78210462 196.52308943 -8.51953125 196.4453125 C-13.67502093 195.88879787 -16.87974832 193.47662508 -20.4375 189.7265625 C-23.73479101 184.71956504 -25.04345261 180.19140776 -24.125 174.1640625 C-22.17779483 168.79818461 -18.727157 165.39536422 -14.125 162.1640625 C-13.135 162.1640625 -12.145 162.1640625 -11.125 162.1640625 C-11.11544764 145.54381869 -11.14001894 128.92403093 -11.2052784 112.30392838 C-11.23478258 104.58698706 -11.25309563 96.87032141 -11.24511719 89.15332031 C-11.23819193 82.42758129 -11.25220925 75.70226881 -11.29143608 68.97663474 C-11.31147666 65.41489918 -11.3209878 61.85383358 -11.30542374 58.29206085 C-11.28844607 54.31703054 -11.31822281 50.34310307 -11.35205078 46.36816406 C-11.33371941 44.59439392 -11.33371941 44.59439392 -11.3150177 42.78479004 C-11.36113196 39.78882625 -11.44477106 37.08200448 -12.125 34.1640625 C-14.85801344 31.45093815 -14.85801344 31.45093815 -18.125 30.1640625 C-22.88139595 24.89346158 -23.48433648 20.80143863 -23.40234375 13.88671875 C-22.86579199 8.61944304 -19.85569435 5.69070865 -16.0625 2.3515625 C-11.17898283 -1.28509922 -5.72012993 -2.25019817 0 0 Z " fill="#BC292F" transform="translate(561.125,350.8359375)"/>
<path d="M0 0 C13 0 13 0 16.83203125 2.9296875 C17.86573676 4.21342167 18.85879861 5.53076261 19.8125 6.875 C20.35398682 7.56609863 20.89547363 8.25719727 21.45336914 8.96923828 C23.00298082 10.95613383 24.50183091 12.97424701 26 15 C27.30548405 16.63064179 28.61690649 18.25657051 29.9375 19.875 C30.53691406 20.63683594 31.13632812 21.39867187 31.75390625 22.18359375 C35.52231879 26.90885539 39.3934072 31.55031803 43.25366211 36.20068359 C43.83768799 36.90660645 44.42171387 37.6125293 45.0234375 38.33984375 C45.54856934 38.97269287 46.07370117 39.60554199 46.61474609 40.25756836 C47.82342292 41.77789379 48.92264011 43.38396016 50 45 C50.33 30.15 50.66 15.3 51 0 C55.95 0 60.9 0 66 0 C66 24.09 66 48.18 66 73 C54 73 54 73 49.8125 69.1875 C48.51558451 67.47780853 47.24561179 65.74742267 46 64 C44.59418565 62.2619989 43.17703935 60.53311632 41.75 58.8125 C41.00234375 57.89082031 40.2546875 56.96914063 39.484375 56.01953125 C36.25035501 52.08887488 32.93494955 48.23167332 29.60058594 44.38598633 C24.95399815 39.00644508 20.50850947 33.51040046 16 28 C15.67 42.85 15.34 57.7 15 73 C10.05 73 5.1 73 0 73 C0 48.91 0 24.82 0 0 Z " fill="#BE2A30" transform="translate(456,707)"/>
<path d="M0 0 C12.37695588 12.00256397 23.66503312 27.55921874 24.30078125 45.35546875 C24.53120011 68.08173859 19.91570784 85.73639946 3.65625 102.40234375 C-2.02426972 107.80423038 -7.92458303 111.66195958 -15 115 C-15.77730469 115.37898437 -16.55460938 115.75796875 -17.35546875 116.1484375 C-30.58453838 122.04279683 -44.85318635 122.43894797 -59.06445312 122.34057617 C-60.81063319 122.33972749 -62.55681432 122.34020974 -64.30299377 122.34190369 C-68.99000998 122.34275565 -73.6767904 122.32526113 -78.36375237 122.30418181 C-83.28175499 122.28528004 -88.19976451 122.28365403 -93.11779785 122.28010559 C-102.4069247 122.27082444 -111.69594416 122.24626452 -120.98502398 122.21605712 C-131.57042631 122.18238992 -142.15583409 122.16599629 -152.74127674 122.15097082 C-174.49424416 122.11971096 -196.24711528 122.06702788 -218 122 C-218 119.03 -218 116.06 -218 113 C-216.64607651 112.99780016 -216.64607651 112.99780016 -215.26480103 112.99555588 C-193.24445517 112.95841241 -171.22426231 112.89929812 -149.20404053 112.81609726 C-138.55496995 112.77638405 -127.90597245 112.74395247 -117.25683594 112.72900391 C-107.96890054 112.71594726 -98.68112645 112.68888078 -89.39328194 112.64538693 C-84.48099233 112.62286203 -79.568901 112.6070839 -74.65655518 112.60811615 C-70.02058006 112.6088681 -65.38504177 112.59070509 -60.74917984 112.55883217 C-59.05951052 112.55040397 -57.36979178 112.54853428 -55.68011093 112.55419731 C-41.6993943 112.59476566 -28.1145495 110.95885404 -15.5625 104.25 C-14.9020166 103.90638428 -14.2415332 103.56276855 -13.56103516 103.20874023 C0.36835474 95.69289469 7.863085 83.88121988 12.9765625 69.1953125 C16.77515727 56.09548568 16.47818135 41.38112244 10.55859375 28.98046875 C5.88122521 20.52647781 -0.03975262 12.71796028 -7 6 C-6 3 -6 3 -2.9375 1.3125 C-1.968125 0.879375 -0.99875 0.44625 0 0 Z " fill="#FCD520" transform="translate(769,475)"/>
<path d="M0 0 C22.8973818 -0.11715864 45.79471368 -0.20514683 68.69233513 -0.25906086 C79.32575416 -0.28476713 89.9589862 -0.31977167 100.59228516 -0.37719727 C109.86770517 -0.4272654 119.14298966 -0.45934597 128.41854107 -0.47044247 C133.32319312 -0.47692184 138.2274577 -0.49198945 143.13198471 -0.52865028 C147.76300012 -0.56298109 152.39347421 -0.57297944 157.0246048 -0.56553841 C158.71025933 -0.5668966 160.39593493 -0.5766057 162.08147812 -0.59602737 C181.85442757 -0.81238586 199.88231662 3.77784229 214.7121582 17.47021484 C226.42254828 28.96278203 232.99359992 45.08515503 233.30737305 61.37353516 C233.34492439 80.61055282 228.83186336 96.9489095 218 113 C217.01 113.99 216.02 114.98 215 116 C212.03 115.01 209.06 114.02 206 113 C206.845625 112.13375 207.69125 111.2675 208.5625 110.375 C222.44424532 94.1905955 224.29043664 73.3832731 223 53 C221.47954083 41.7337684 214.97855514 30.0382052 206.29296875 22.71875 C194.52767233 14.31285268 182.27466756 9.91529604 167.63479614 9.84178162 C166.55517382 9.83437465 166.55517382 9.83437465 165.45374095 9.82681805 C163.05396102 9.81152067 160.65420768 9.8031036 158.25439453 9.79467773 C156.52939116 9.7850931 154.80439011 9.77508268 153.07939148 9.76467896 C148.40429092 9.73768725 143.72918032 9.71664669 139.0540452 9.69667697 C134.1653146 9.67478199 129.27661473 9.6474105 124.38790894 9.62062073 C115.13393333 9.5707413 105.87994062 9.52578487 96.62593162 9.48259836 C86.08909237 9.43318537 75.55228396 9.37828232 65.01547456 9.32291877 C43.34367845 9.20917165 21.67185289 9.10231681 0 9 C0 6.03 0 3.06 0 0 Z " fill="#FCD51E" transform="translate(551,308)"/>
<path d="M0 0 C2.97 0 5.94 0 9 0 C8.9969838 1.35001602 8.99396759 2.70003204 8.99085999 4.09095764 C8.96697787 16.81843162 8.97979294 29.54541109 9.02846622 42.27282047 C9.05231201 48.81607401 9.06326254 55.3588181 9.04467773 61.90209961 C9.02721497 68.21774874 9.04371061 74.53248285 9.08367729 80.84802055 C9.09296599 83.25650899 9.09005226 85.66507663 9.07469368 88.07353401 C9.05525478 91.44986451 9.07933826 94.82330804 9.11352539 98.19946289 C9.0898011 99.69055824 9.0898011 99.69055824 9.06559753 101.21177673 C9.16706221 106.42522567 9.68757225 109.27593571 13.43894958 113.04490662 C14.61329012 114.04501638 15.79873494 115.03239601 17 116 C18.12269251 117.25449708 19.23159492 118.52182359 20.3125 119.8125 C23.91340588 124.00130888 27.81253749 127.84825085 31.765625 131.703125 C34 134 34 134 35.33149719 136.10943604 C36.84603081 138.19553622 36.84603081 138.19553622 39.25895691 138.51898193 C40.1405397 138.52786438 41.0221225 138.53674683 41.93041992 138.54589844 C42.93123093 138.56561707 43.93204193 138.58533569 44.96318054 138.60565186 C46.04138565 138.60688049 47.11959076 138.60810913 48.23046875 138.609375 C49.33602615 138.62591125 50.44158356 138.64244751 51.5806427 138.65948486 C55.11631743 138.70812082 58.65156158 138.72937109 62.1875 138.75 C64.58270414 138.77814652 66.97788808 138.80807207 69.37304688 138.83984375 C75.24861934 138.91388388 81.12406993 138.96543486 87 139 C87.132854 138.21141602 87.26570801 137.42283203 87.40258789 136.61035156 C88.11146894 133.51294403 88.98249451 132.68950538 91.4375 130.75 C92.05496094 130.24984375 92.67242188 129.7496875 93.30859375 129.234375 C97.74561243 125.99627361 102.70196723 126.46045494 108 127 C113.00230198 129.45567552 116.49851535 132.9970307 119 138 C119.81106716 144.23363045 119.32762237 149.13599873 115.61328125 154.3046875 C111.84314528 158.2665253 107.37167394 160.16299696 101.9375 160.5 C96.08208723 159.75645552 92.69238275 157.77917161 88.5625 153.4375 C87 151 87 151 87 148 C86.36487991 148.02886795 85.72975983 148.0577359 85.07539368 148.08747864 C78.40792944 148.37721309 71.74227491 148.571982 65.07006836 148.71411133 C62.58755783 148.77911372 60.10553779 148.86755442 57.62475586 148.98071289 C35.886003 149.94678254 35.886003 149.94678254 29.52832031 145.20214844 C26.17432775 142.12990882 23.59705661 138.72277484 21 135 C19.72607014 133.52614736 18.4392676 132.06299845 17.125 130.625 C16.60164062 130.00882813 16.07828125 129.39265625 15.5390625 128.7578125 C13.9305945 126.92072976 12.24161132 125.21092213 10.5 123.5 C9.96159768 122.9591552 9.42319536 122.41831039 8.86847782 121.86107635 C7.65362188 120.65103274 6.41645453 119.46284803 5.15489101 118.30158234 C0.54315479 113.69738616 -0.80544706 110.38592693 -0.87094116 103.89697266 C-0.83319077 102.36919189 -0.83319077 102.36919189 -0.79467773 100.81054688 C-0.79569992 99.71697876 -0.79672211 98.62341064 -0.79777527 97.4967041 C-0.79292102 93.90304353 -0.73857635 90.31196346 -0.68359375 86.71875 C-0.67053001 84.21913033 -0.66056951 81.71949267 -0.65357971 79.21984863 C-0.62963728 73.32645489 -0.57454293 67.43400505 -0.50413328 61.54099703 C-0.41796933 54.16812003 -0.38056629 46.79512716 -0.34179688 39.421875 C-0.26683513 26.28077111 -0.1474392 13.14047662 0 0 Z " fill="#FBD620" transform="translate(572,389)"/>
<path d="M0 0 C4.45131583 2.6007688 7.64237865 5.29886758 9.7734375 10.09375 C10.6651796 15.63104378 10.51767567 20.55441128 7.7734375 25.53125 C4.33652788 30.23286512 0.18508218 32.53863493 -5.53125 33.46875 C-10.90377456 33.75817893 -14.05798286 32.68066737 -18.2265625 29.09375 C-20.22832465 26.82147946 -21.87489302 24.79708897 -23.2265625 22.09375 C-29.63062875 21.89005774 -36.03385352 21.75046283 -42.44042969 21.65429688 C-44.61717949 21.61419034 -46.79371545 21.55968851 -48.96972656 21.49023438 C-52.10795913 21.39261323 -55.24333299 21.34769624 -58.3828125 21.3125 C-59.34771606 21.27120972 -60.31261963 21.22991943 -61.3067627 21.18737793 C-66.94213965 21.18367807 -69.76106625 22.00844721 -73.84179688 26.01757812 C-77.09747216 29.68054947 -78.34675982 31.72489055 -78.38478088 36.62417603 C-78.3945697 37.57772476 -78.40435852 38.5312735 -78.41444397 39.51371765 C-78.42019943 40.56316055 -78.4259549 41.61260345 -78.43188477 42.69384766 C-78.44673416 44.34751595 -78.44673416 44.34751595 -78.46188354 46.03459167 C-78.49356633 49.69230982 -78.51828277 53.35004098 -78.54296875 57.0078125 C-78.56353242 59.53844548 -78.58452873 62.06907499 -78.60594177 64.59970093 C-78.65556739 70.58845218 -78.70081696 76.57722116 -78.74396414 82.56602132 C-78.79332368 89.38338211 -78.84824655 96.20069449 -78.90364373 103.01800847 C-79.01748685 117.04321048 -79.12432081 131.06845896 -79.2265625 145.09375 C-81.8665625 145.09375 -84.5065625 145.09375 -87.2265625 145.09375 C-87.57845583 129.96851996 -87.84219341 114.84347922 -88.00374508 99.71506405 C-88.08078653 92.68876998 -88.18561125 85.66503239 -88.3581543 78.64038086 C-88.52482602 71.85147296 -88.61100235 65.06521173 -88.64972115 58.27438545 C-88.67728428 55.69344025 -88.73111397 53.11262827 -88.81251335 50.53281975 C-89.48471157 28.3309614 -89.48471157 28.3309614 -82.37568855 19.95318031 C-76.77802848 14.3738829 -71.22846362 10.38485351 -63.05628967 10.39430237 C-62.06189377 10.47172165 -61.06749786 10.54914093 -60.04296875 10.62890625 C-58.97658676 10.65013046 -57.91020477 10.67135468 -56.81150818 10.69322205 C-53.46375645 10.77604569 -50.13210813 10.96375914 -46.7890625 11.15625 C-44.49696533 11.2316426 -42.2046275 11.30005706 -39.91210938 11.36132812 C-34.3449307 11.52512686 -28.78689502 11.7747339 -23.2265625 12.09375 C-22.92999756 11.14218018 -22.63343262 10.19061035 -22.32788086 9.21020508 C-21.19517163 6.00492171 -20.38927404 4.85582738 -17.7890625 2.78125 C-16.89380859 2.04455078 -16.89380859 2.04455078 -15.98046875 1.29296875 C-11.3505694 -1.87268626 -5.11836648 -2.08326496 0 0 Z " fill="#FBD51C" transform="translate(681.2265625,355.90625)"/>
<path d="M0 0 C3.42637732 1.71318866 5.88147426 3.84002376 8.75 6.375 C-4.59736827 23.8007308 -26.85416781 33.49969089 -48.03133392 36.94991684 C-52.81663323 37.5819023 -57.52238428 37.63861194 -62.34277344 37.60205078 C-63.37840424 37.60234283 -64.41403503 37.60263489 -65.48104858 37.60293579 C-68.85724679 37.60155779 -72.23321601 37.58606953 -75.609375 37.5703125 C-77.96876912 37.56657692 -80.3281648 37.56373253 -82.68756104 37.56173706 C-88.86226777 37.55414352 -95.03687867 37.53453223 -101.21154785 37.5123291 C-107.52643539 37.49177799 -113.84133858 37.48271562 -120.15625 37.47265625 C-132.52087517 37.45128194 -144.88542958 37.41719827 -157.25 37.375 C-157.25 33.415 -157.25 29.455 -157.25 25.375 C-156.08949631 25.36913376 -154.92899261 25.36326752 -153.73332214 25.35722351 C-142.71671753 25.29963912 -131.70030358 25.22669634 -120.68389416 25.13928509 C-115.0222692 25.09484035 -109.36071194 25.05552952 -103.69897461 25.02856445 C-98.21988649 25.00227017 -92.74106263 24.96169009 -87.26214027 24.91181374 C-85.1873539 24.89531955 -83.11252201 24.88369806 -81.03767967 24.87738609 C-64.71211651 24.82276978 -47.82352744 24.33451522 -32.4375 18.25 C-31.66398193 17.95649658 -30.89046387 17.66299316 -30.09350586 17.3605957 C-23.54512551 14.75272603 -17.81651585 11.29650859 -12.03515625 7.29296875 C-9.25 5.375 -9.25 5.375 -6.93359375 4.30078125 C-4.88943471 3.42483865 -4.88943471 3.42483865 -4.25 0.375 C-2.25 -0.625 -2.25 -0.625 0 0 Z " fill="#FEFDFC" transform="translate(781.25,441.625)"/>
<path d="M0 0 C6.02734079 3.56669445 9.1007111 7.74903473 11.89453125 14.12109375 C13.93438956 22.49862506 13.19171972 28.70110373 8.89453125 36.12109375 C5.34690895 41.45302313 1.19014769 45.46946598 -5.10546875 47.12109375 C-13.05134136 48.05280005 -20.41628717 48.23533002 -27.2421875 43.671875 C-33.28775228 38.64024142 -37.53034157 33.05440686 -38.45703125 25.10546875 C-38.79114414 17.54396652 -37.89205007 12.0892493 -33.10546875 6.12109375 C-24.22446131 -3.4771447 -11.76187608 -6.12465259 0 0 Z " fill="#FDFCFC" transform="translate(412.10546875,721.87890625)"/>
<path d="M0 0 C6.27 0 12.54 0 19 0 C19 19.47 19 38.94 19 59 C31.87 59 44.74 59 58 59 C58 63.62 58 68.24 58 73 C38.86 73 19.72 73 0 73 C0 48.91 0 24.82 0 0 Z " fill="#F7DC39" transform="translate(656,707)"/>
<path d="M0 0 C2.97 0 5.94 0 9 0 C9 70.29 9 140.58 9 213 C6.03 213 3.06 213 0 213 C0 142.71 0 72.42 0 0 Z " fill="#FAD72B" transform="translate(265,390)"/>
<path d="M0 0 C3.84356525 1.30536178 6.88498465 2.95657192 10.3125 5.125 C-1.16830756 18.18936722 -20.77291662 25.64073557 -37.81848145 26.93746948 C-46.4916356 27.35785544 -55.17827559 27.24508988 -63.859375 27.22265625 C-65.99456753 27.22078803 -68.1297605 27.21936603 -70.26495361 27.21836853 C-75.84779065 27.21457519 -81.4306011 27.20477256 -87.01342773 27.19366455 C-92.725094 27.18338152 -98.43676462 27.17885623 -104.1484375 27.17382812 C-115.32813659 27.16314704 -126.50781607 27.14610946 -137.6875 27.125 C-137.6875 22.835 -137.6875 18.545 -137.6875 14.125 C-135.83279839 14.11620064 -135.83279839 14.11620064 -133.94062805 14.10722351 C-122.24521682 14.04982359 -110.54998845 13.97697255 -98.85476398 13.88928509 C-92.84321261 13.84470089 -86.83172715 13.80541869 -80.82006836 13.77856445 C-75.01033642 13.75241197 -69.20085977 13.71192593 -63.39128685 13.66181374 C-61.18315004 13.64522548 -58.97496915 13.63366145 -56.76677895 13.62738609 C-39.34856609 13.57291239 -23.52181544 12.58572932 -8.5 2.8125 C-5.20572557 0.779315 -3.96851767 0.13452602 0 0 Z " fill="#FEFDF6" transform="translate(761.6875,430.875)"/>
<path d="M0 0 C21.12 0 42.24 0 64 0 C64 3.96 64 7.92 64 12 C56.08 12 48.16 12 40 12 C40 32.46 40 52.92 40 74 C34.72 74 29.44 74 24 74 C24 53.87 24 33.74 24 13 C16.08 13 8.16 13 0 13 C0 8.71 0 4.42 0 0 Z " fill="#BF2E34" transform="translate(535,707)"/>
<path d="M0 0 C13.30084017 -0.04652765 26.60166069 -0.08197243 39.90256596 -0.10362434 C46.08001156 -0.11402093 52.2574011 -0.12810409 58.43481445 -0.15087891 C64.40651939 -0.17275525 70.3781707 -0.18459958 76.34991264 -0.18975449 C78.61784139 -0.19342386 80.88576751 -0.20058849 83.15367317 -0.21146011 C112.83900511 -0.34798475 112.83900511 -0.34798475 125 4 C122.31155125 7.46668391 118.65839871 8.34941898 114.625 9.5625 C113.98433594 9.77068359 113.34367188 9.97886719 112.68359375 10.19335938 C99.07334263 14.39226663 85.47452724 14.27074915 71.38671875 14.1953125 C69.32021726 14.19157496 67.25371399 14.1887315 65.18721008 14.18673706 C59.79012014 14.17915891 54.39314057 14.15956143 48.99609375 14.1373291 C43.47202039 14.11674427 37.94792892 14.10770851 32.42382812 14.09765625 C21.61583735 14.0763092 10.80792791 14.04224485 0 14 C0 9.38 0 4.76 0 0 Z " fill="#FCF9F4" transform="translate(624,423)"/>
<path d="M0 0 C2.35088845 1.11014177 4.19692292 2.47956032 6.25 4.0625 C-16.82444744 26.4810846 -45.4205539 30.41728874 -76.1171875 30.2578125 C-78.24952053 30.25407451 -80.3818553 30.25123126 -82.51419067 30.24923706 C-88.08059574 30.24166242 -93.64689362 30.22206811 -99.21325684 30.1998291 C-104.91168773 30.17923654 -110.61013623 30.17020688 -116.30859375 30.16015625 C-127.45577582 30.13881543 -138.60287894 30.10475552 -149.75 30.0625 C-149.75 27.0925 -149.75 24.1225 -149.75 21.0625 C-148.58283447 21.05441315 -147.41566895 21.04632629 -146.21313477 21.03799438 C-135.15148565 20.96012044 -124.08995333 20.87228137 -113.02845764 20.77497292 C-107.34321476 20.7252721 -101.65798815 20.67894223 -95.97265625 20.640625 C-90.47418312 20.60343796 -84.97585548 20.55699288 -79.47750854 20.50443649 C-77.3918618 20.48606836 -75.30618408 20.47089745 -73.2204895 20.45915604 C-50.91221825 20.59452594 -50.91221825 20.59452594 -29.4375 15.3125 C-28.78072266 15.05082031 -28.12394531 14.78914063 -27.44726562 14.51953125 C-19.84995006 11.41525177 -12.78467124 7.78371309 -6.375 2.625 C-3.0981738 0.07041304 -3.0981738 0.07041304 0 0 Z " fill="#FCD620" transform="translate(773.75,436.9375)"/>
<path d="M0 0 C2.97 0 5.94 0 9 0 C8.9969838 1.35001602 8.99396759 2.70003204 8.99085999 4.09095764 C8.96697787 16.81843162 8.97979294 29.54541109 9.02846622 42.27282047 C9.05231201 48.81607401 9.06326254 55.3588181 9.04467773 61.90209961 C9.02721497 68.21774874 9.04371061 74.53248285 9.08367729 80.84802055 C9.09296599 83.25650899 9.09005226 85.66507663 9.07469368 88.07353401 C9.05525478 91.44986451 9.07933826 94.82330804 9.11352539 98.19946289 C9.0898011 99.69055824 9.0898011 99.69055824 9.06559753 101.21177673 C9.16706221 106.42522567 9.68757225 109.27593571 13.43894958 113.04490662 C14.61329012 114.04501638 15.79873494 115.03239601 17 116 C18.12269251 117.25449708 19.23159492 118.52182359 20.3125 119.8125 C23.90846952 124.01324621 27.85230847 127.80333682 31.86328125 131.60546875 C34.01586705 134.01778154 35.01807258 135.94571746 36 139 C31.375 142 31.375 142 28 142 C26.421875 140.75 26.421875 140.75 24.75 139 C23.82960938 138.0409375 23.82960938 138.0409375 22.890625 137.0625 C20.4579548 134.40867796 18.0996742 131.69605042 15.75 128.96875 C14.06201714 127.06976929 12.31230266 125.27994012 10.5 123.5 C9.96208108 122.9596386 9.42416216 122.41927719 8.86994267 121.8625412 C7.65459947 120.65200848 6.41696248 119.46331559 5.15489101 118.30158234 C0.54315479 113.69738616 -0.80544706 110.38592693 -0.87094116 103.89697266 C-0.83319077 102.36919189 -0.83319077 102.36919189 -0.79467773 100.81054688 C-0.79569992 99.71697876 -0.79672211 98.62341064 -0.79777527 97.4967041 C-0.79292102 93.90304353 -0.73857635 90.31196346 -0.68359375 86.71875 C-0.67053001 84.21913033 -0.66056951 81.71949267 -0.65357971 79.21984863 C-0.62963728 73.32645489 -0.57454293 67.43400505 -0.50413328 61.54099703 C-0.41796933 54.16812003 -0.38056629 46.79512716 -0.34179688 39.421875 C-0.26683513 26.28077111 -0.1474392 13.14047662 0 0 Z " fill="#FCD51C" transform="translate(572,389)"/>
<path d="M0 0 C22.91173578 -2.50770419 22.91173578 -2.50770419 29.03466797 1.24804688 C32.30588733 4.77929447 33.9944228 9.17289266 35.84326172 13.56152344 C37.96268434 18.02939873 40.96828355 21.893541 43.875 25.875 C45.09320694 27.59267178 46.30806917 29.31272073 47.51953125 31.03515625 C48.11072754 31.87449707 48.70192383 32.71383789 49.31103516 33.57861328 C51.78211889 37.1212858 54.17923512 40.71037139 56.5625 44.3125 C61.84238212 52.28652865 67.19346724 60.21088679 72.5625 68.125 C81.32971784 81.05090047 90.07595642 93.99084707 98.8125 106.9375 C99.7269841 108.29261688 99.7269841 108.29261688 100.65994263 109.67510986 C104.1069817 114.78316827 107.55365602 119.8914726 111 125 C109.328125 128.84375 109.328125 128.84375 106.375 130.25 C105.59125 130.4975 104.8075 130.745 104 131 C95.69696869 119.15687877 87.46243096 107.27798309 79.47045898 95.22241211 C74.83897456 88.24159617 70.14854542 81.30231065 65.4375 74.375 C56.86736636 61.76918177 48.3354979 49.13772879 39.8125 36.5 C39.18544159 35.57048523 38.55838318 34.64097046 37.912323 33.68328857 C34.43333679 28.52596967 30.9575966 23.36649065 27.4854126 18.20458984 C26.12610023 16.1871529 24.76195027 14.17309914 23.39599609 12.16015625 C22.67105957 11.08636719 21.94612305 10.01257813 21.19921875 8.90625 C20.59295654 8.01228516 19.98669434 7.11832031 19.36206055 6.19726562 C18 4 18 4 17 1 C11.39 1 5.78 1 0 1 C0 0.67 0 0.34 0 0 Z " fill="#FAD420" transform="translate(363,489)"/>
<path d="M0 0 C5.94 0 11.88 0 18 0 C18 24.42 18 48.84 18 74 C12.06 74 6.12 74 0 74 C0 49.58 0 25.16 0 0 Z " fill="#F7DC39" transform="translate(729,707)"/>
<path d="M0 0 C7.62875613 -0.99013522 7.62875613 -0.99013522 10.61279297 1.16455078 C12.04798996 2.89156232 13.24807793 4.65774485 14.4375 6.5625 C14.89721191 7.2421582 15.35692383 7.92181641 15.83056641 8.62207031 C17.24880976 10.73070382 18.62467746 12.86320507 20 15 C20.81821591 16.22493329 21.63968962 17.4476985 22.46484375 18.66796875 C24.11058936 21.10805112 25.7405209 23.55762136 27.359375 26.015625 C36.94728586 40.53529031 46.98480289 54.76149082 56.93408203 69.03417969 C59.00926131 72.01329548 61.08131783 74.99455813 63.15234375 77.9765625 C63.83264648 78.9555249 64.51294922 79.9344873 65.21386719 80.94311523 C66.55839353 82.87913644 67.90152089 84.81613006 69.24316406 86.75415039 C72.35008673 91.23343943 75.48337665 95.6858251 78.70703125 100.08203125 C79.27583008 100.86400879 79.84462891 101.64598633 80.43066406 102.45166016 C81.48823446 103.90067716 82.55602256 105.34231345 83.63574219 106.77490234 C87.06355003 111.48843714 87.06355003 111.48843714 86.73999023 114.09301758 C85.72447439 116.71003976 84.42381196 117.64551684 82 119 C78.213393 117.73779767 77.79427284 116.52750573 75.6875 113.1875 C72.01669686 107.51321822 68.2050504 101.96198058 64.3125 96.4375 C57.97439494 87.41867426 51.7340147 78.33657539 45.52294922 69.22998047 C43.14787444 65.75227398 40.76208769 62.2819672 38.375 58.8125 C37.98264664 58.24199417 37.59029327 57.67148834 37.18605042 57.08369446 C34.95285375 53.83687757 32.71831797 50.59100722 30.47973633 47.34790039 C24.17744279 38.21051067 17.93975967 29.0316358 11.77075195 19.80371094 C10.7809039 18.32482193 9.78896949 16.84732765 8.79516602 15.37109375 C7.33426485 13.20085466 5.87933692 11.02672595 4.42578125 8.8515625 C3.9790657 8.19024323 3.53235016 7.52892395 3.07209778 6.8475647 C0 2.22832087 0 2.22832087 0 0 Z " fill="#FBD51F" transform="translate(406,489)"/>
<path d="M0 0 C1.03447266 0.28617187 1.03447266 0.28617187 2.08984375 0.578125 C3.12818359 0.84882813 3.12818359 0.84882813 4.1875 1.125 C6.02734375 1.828125 6.02734375 1.828125 8.02734375 3.828125 C2.26784064 7.91287898 -3.42018367 11.19757032 -9.97265625 13.828125 C-11.11689953 14.31534625 -11.11689953 14.31534625 -12.28425884 14.81241035 C-20.05841447 17.74959654 -28.26816613 18.12053333 -36.49291992 18.05517578 C-37.9729953 18.05561386 -37.9729953 18.05561386 -39.48297119 18.05606079 C-42.7022827 18.0546819 -45.92135458 18.03918937 -49.140625 18.0234375 C-51.38934706 18.01970224 -53.63807076 18.01685769 -55.88679504 18.01486206 C-61.77381979 18.00726603 -67.66074412 17.98765254 -73.54772949 17.9654541 C-79.56761314 17.94490842 -85.58751319 17.93584177 -91.60742188 17.92578125 C-103.39587718 17.90440253 -115.18425833 17.87031577 -126.97265625 17.828125 C-126.97265625 15.188125 -126.97265625 12.548125 -126.97265625 9.828125 C-125.84307495 9.82225876 -124.71349365 9.81639252 -123.54968262 9.81034851 C-112.84117798 9.75283355 -102.13287082 9.67992493 -91.42456818 9.59241009 C-85.92091877 9.54791302 -80.41733988 9.50861278 -74.91357422 9.48168945 C-69.59010701 9.45544855 -64.26691427 9.41490342 -58.94361877 9.36493874 C-56.9249669 9.34840928 -54.90626771 9.33680923 -52.88755798 9.33051109 C-36.19487985 9.27322426 -14.43967161 -1.25811 0 0 Z " fill="#FCD419" transform="translate(750.97265625,427.171875)"/>
<path d="M0 0 C0.33 0 0.66 0 1 0 C1.33 22.11 1.66 44.22 2 67 C2.66 67.33 3.32 67.66 4 68 C4 68.66 4 69.32 4 70 C4.66 70 5.32 70 6 70 C6 116.86 6 163.72 6 212 C4.02 212 2.04 212 0 212 C0 142.04 0 72.08 0 0 Z " fill="#FCD516" transform="translate(266,391)"/>
<path d="M0 0 C5.506875 -0.12375 5.506875 -0.12375 11.125 -0.25 C12.2711377 -0.28641602 13.41727539 -0.32283203 14.59814453 -0.36035156 C20.73899879 -0.42711168 24.36177603 -0.15761853 29 4 C31.3294429 6.87297958 31.95186952 8.63558348 32.4375 12.3125 C31.91209481 16.74091519 30.84420105 20.50178481 28 24 C22.54926693 27.85220077 17.01280188 27.34698334 10.625 27.1875 C5.365625 27.0946875 5.365625 27.0946875 0 27 C0 18.09 0 9.18 0 0 Z " fill="#FEFCFC" transform="translate(82,720)"/>
<path d="M0 0 C3.97958568 -0.08146233 7.95747828 -0.14072862 11.9375 -0.1875 C13.05447266 -0.21263672 14.17144531 -0.23777344 15.32226562 -0.26367188 C23.13481155 -0.33240395 30.53161265 -0.13000809 36.5625 5.3125 C38.31858359 8.5956128 38.61218369 10.32689789 38 14 C35.53989059 18.00906719 33.43272378 19.61149216 29 21 C25.77026367 21.22705078 25.77026367 21.22705078 22.16796875 21.1953125 C20.87568359 21.18886719 19.58339844 21.18242188 18.25195312 21.17578125 C16.8971327 21.15907327 15.54231499 21.14214342 14.1875 21.125 C12.81315749 21.11496003 11.43880797 21.10583596 10.06445312 21.09765625 C6.7095601 21.07411314 3.35475766 21.03824296 0 21 C0 14.07 0 7.14 0 0 Z " fill="#FCF8F8" transform="translate(161,748)"/>
<path d="M0 0 C3.66712044 -0.08142455 7.33240748 -0.14070811 11 -0.1875 C12.54494141 -0.22520508 12.54494141 -0.22520508 14.12109375 -0.26367188 C20.91525884 -0.32858428 27.19782273 -0.1404268 32.6875 4.39379883 C34 6 34 6 34.4375 9.375 C33.92762461 13.59968179 33.06536053 15.10033463 30 18 C26.2337101 19.86392299 23.22092277 20.23816331 19.04296875 20.1953125 C17.93115234 20.18886719 16.81933594 20.18242188 15.67382812 20.17578125 C14.52333984 20.15902344 13.37285156 20.14226563 12.1875 20.125 C11.01767578 20.11597656 9.84785156 20.10695313 8.64257812 20.09765625 C5.76163084 20.07413831 2.88078911 20.03826879 0 20 C0 13.4 0 6.8 0 0 Z " fill="#FAF3F3" transform="translate(161,718)"/>
<path d="M0 0 C58.74 0 117.48 0 178 0 C178.33 0.66 178.66 1.32 179 2 C120.59 2 62.18 2 2 2 C2 3.98 2 5.96 2 8 C59.42 8 116.84 8 176 8 C176 8.33 176 8.66 176 9 C117.92 9 59.84 9 0 9 C0 6.03 0 3.06 0 0 Z " fill="#B9252B" transform="translate(244,330)"/>
<path d="M0 0 C10.23 0 20.46 0 31 0 C31 3.96 31 7.92 31 12 C20.77 12 10.54 12 0 12 C0 8.04 0 4.08 0 0 Z " fill="#BD292E" transform="translate(602,740)"/>
<path d="M0 0 C2.97 0 5.94 0 9 0 C9.04635203 8.27546642 9.08188373 16.55087855 9.10362434 24.82644272 C9.11405904 28.66917254 9.12821245 32.5118135 9.15087891 36.35449219 C9.17261857 40.06328453 9.18457099 43.77199144 9.18975449 47.48084259 C9.19344823 48.89542231 9.2006612 50.30999739 9.21146011 51.72454071 C9.2259891 53.70661352 9.22681704 55.6887724 9.22705078 57.67089844 C9.231492 58.79896912 9.23593323 59.92703979 9.24050903 61.08929443 C9 64 9 64 7 68 C7 46.22 7 24.44 7 2 C5.35 2 3.7 2 2 2 C2 38.3 2 74.6 2 112 C1.34 112 0.68 112 0 112 C0 75.04 0 38.08 0 0 Z " fill="#FAD836" transform="translate(572,389)"/>
<path d="M0 0 C3.69186542 2.59216083 4.82883761 4.04149064 5.625 8.5 C5 12 5 12 3 14.9375 C-0.31583691 17.21713788 -2.10902711 17.81667462 -6.05859375 17.546875 C-9.81838767 16.48777812 -11.15396038 14.27523158 -13 11 C-13.14842915 6.69555461 -12.71117869 4.81576379 -9.875 1.5625 C-6.19933618 -0.43514338 -4.12848931 -0.66350721 0 0 Z " fill="#F3D131" transform="translate(537,258)"/>
<path d="M0 0 C4.0318506 1.3439502 5.32041925 2.42675465 7.375 6.125 C8.0053761 9.9072566 7.67715998 11.58111204 5.8125 14.9375 C2.61950523 17.80300813 0.63380812 18.125 -3.625 18.125 C-6.57255732 16.77937601 -8.16777272 16.03945456 -9.625 13.125 C-9.97072176 10.11228178 -10.20206364 8.03251295 -9.625 5.125 C-6.50390461 1.39491039 -4.89475778 0.16878475 0 0 Z " fill="#F2CF30" transform="translate(247.625,357.875)"/>
<path d="M0 0 C2.9375 1.4375 2.9375 1.4375 5 4 C5.71014629 7.14658314 5.71014629 9.85341686 5 13 C2.33120085 16.31578076 0.68392436 16.89008359 -3.5 17.5625 C-7 17 -7 17 -9.9375 14.9375 C-12 12 -12 12 -12.625 8.5 C-11.33615024 1.28244135 -7.03773356 -1.13106432 0 0 Z " fill="#F3D231" transform="translate(230,258)"/>
<path d="M0 0 C2.9375 1.5 2.9375 1.5 5 4 C5.80552191 7.74375897 5.42891429 10.88482286 4.0625 14.4375 C0.69475777 16.98881987 -2.8381664 17.41545449 -7 17 C-10.0625 15 -10.0625 15 -12 12 C-12.625 8.5 -12.625 8.5 -12 5 C-8.57935012 0.12816532 -5.85570965 -0.94109619 0 0 Z " fill="#F2D131" transform="translate(558,521)"/>
<path d="M0 0 C3.0625 2 3.0625 2 5 5 C5.37555752 7.91779305 5.03821185 10.25246699 4 13 C1.41773756 15.95115708 -0.15790225 16.84210667 -4 17.5625 C-8.17033126 16.78056289 -9.55871269 15.44652326 -12 12 C-12.8876276 8.10215706 -12.59158203 4.98597004 -10.5 1.5 C-7.00688124 -0.59587126 -3.90463221 -0.87198308 0 0 Z " fill="#F1CF31" transform="translate(467,637)"/>
<path d="M0 0 C2.86972996 1.99633389 4.65210765 3.47229883 5.44921875 6.97265625 C5.63063966 10.3195592 5.22262069 12.62896551 3.5 15.5 C-0.03067876 17.61840725 -2.98396388 17.79990863 -7 17 C-10.33219018 14.86398066 -10.89315459 13.3672811 -12 9.5625 C-12 6 -12 6 -10.1875 3.125 C-6.81905269 -0.14720596 -4.66713665 -0.5490749 0 0 Z " fill="#F2D031" transform="translate(558,359)"/>
<path d="M0 0 C3.73152858 1.17474048 5.26415485 1.76958156 7.375 5.0625 C7.98613838 7.87027729 8.02966318 10.26008219 7.375 13.0625 C4.69386615 16.31235922 3.02366582 16.95825014 -1.125 17.625 C-4.625 17.0625 -4.625 17.0625 -7.5625 15 C-9.625 12.0625 -9.625 12.0625 -10.3125 8.5625 C-9.625 5.0625 -9.625 5.0625 -7.0625 2.0625 C-3.625 0.0625 -3.625 0.0625 0 0 Z " fill="#F2D130" transform="translate(247.625,612.9375)"/>
<path d="M0 0 C3.44150865 2.43773529 4.762119 3.85817119 5.625 8 C4.762119 12.14182881 3.44150865 13.56226471 0 16 C-3.89784294 16.8876276 -7.01402996 16.59158203 -10.5 14.5 C-12.62153384 10.96411027 -12.791013 8.02098277 -12 4 C-9.22048525 -0.63252459 -5.03465073 -1.14650462 0 0 Z " fill="#F2D030" transform="translate(318,614)"/>
<path d="M0 0 C2.63929161 0.58326886 3.55285224 1.27811264 5.12109375 3.46875 C5.97672506 7.65440586 5.78368394 11.3368251 3.62109375 15.03125 C0.09043224 17.06138037 -2.90667584 17.40482889 -6.87890625 16.46875 C-9.8788374 13.91880852 -10.73371084 12.33992244 -11.37890625 8.46875 C-10.18040358 1.27773396 -6.66654272 -0.0899365 0 0 Z " fill="#F3D231" transform="translate(535.87890625,563.53125)"/>
<path d="M0 0 C3.38121991 2.44598887 4.76936783 3.89296559 5.625 8 C4.77618008 12.0743356 3.32274404 13.54405875 0 16 C-3 16.625 -3 16.625 -6 16 C-8.875 13.9375 -8.875 13.9375 -11 11 C-11.63007693 7.00951279 -11.63021887 4.98314143 -9.4375 1.5625 C-6.01685857 -0.63021887 -3.99048721 -0.63007693 0 0 Z " fill="#FEFDF6" transform="translate(376,364)"/>
<path d="M0 0 C3.68544605 2.09400344 4.79771663 3.38191193 6.125 7.4375 C6 11 6 11 4 13.9375 C1 16 1 16 -2.5 16.6875 C-6 16 -6 16 -9 13.375 C-11 10 -11 10 -11.125 6.875 C-9.13155829 1.78064896 -5.5556097 -1.11112194 0 0 Z " fill="#FDFCF1" transform="translate(677,524)"/>
<path d="M0 0 C2.875 1.5 2.875 1.5 5 4 C5.71730941 6.8229596 5.71730941 9.1770404 5 12 C2.46528234 14.98202078 0.81287661 15.83065071 -3 16.625 C-6.46122187 15.90391211 -8.05420345 14.63992305 -10.1484375 11.7890625 C-11.67373104 8.58454672 -11.04902601 6.27049287 -10 3 C-7.07633177 -0.35680426 -4.30565927 -0.61509418 0 0 Z " fill="#FEFDF6" transform="translate(677,364)"/>
<path d="M0 0 C0.33 1.32 0.66 2.64 1 4 C-1.4375 6.75 -1.4375 6.75 -4 9 C-4.66 8.67 -5.32 8.34 -6 8 C-4.02 5.36 -2.04 2.72 0 0 Z " fill="#F8D831" transform="translate(463,407)"/>
</svg>
